<?xml version="1.0" standalone="no"?>
<!DOCTYPE svg PUBLIC "-//W3C//DTD SVG 20010904//EN"
 "http://www.w3.org/TR/2001/REC-SVG-20010904/DTD/svg10.dtd">
<svg version="1.0" xmlns="http://www.w3.org/2000/svg"
 width="720.000000pt" height="1280.000000pt" viewBox="0 0 720.000000 1280.000000"
 preserveAspectRatio="xMidYMid meet">

<g transform="translate(0.000000,1280.000000) scale(0.100000,-0.100000)"
fill="#000000" stroke="none">
<path d="M0 6400 l0 -6400 3600 0 3600 0 0 6400 0 6400 -3600 0 -3600 0 0
-6400z m3486 3405 c-11 -8 -27 -15 -35 -15 -9 1 -2 7 14 15 39 18 44 18 21 0z
m92 6 c11 -6 10 -10 -4 -15 -9 -3 -19 -4 -22 -1 -3 3 1 5 9 5 11 0 11 2 -1 10
-8 5 -10 10 -5 10 6 0 16 -4 23 -9z m143 -14 c-10 -9 -11 -8 -5 6 3 10 9 15
12 12 3 -3 0 -11 -7 -18z m-219 -28 c-13 -5 -28 -7 -33 -3 -5 3 -9 0 -9 -5 0
-6 -7 -11 -15 -11 -8 0 -15 5 -15 11 0 5 5 7 10 4 6 -3 10 -2 10 3 0 5 17 9
38 10 32 0 34 -1 14 -9z m371 -6 c11 -21 17 -64 7 -58 -5 3 -10 17 -10 30 0
13 -6 26 -12 28 -10 4 -10 6 -1 6 6 1 14 -2 16 -6z m-493 -25 c0 -9 4 -8 10 2
5 8 10 10 10 5 0 -6 -12 -23 -26 -38 -14 -15 -23 -35 -20 -43 3 -7 2 -14 -2
-14 -12 0 -32 22 -32 35 0 5 4 4 9 -4 7 -11 12 -4 21 27 10 39 30 58 30 30z
m494 -83 c-4 -8 -8 -15 -10 -15 -2 0 -4 7 -4 15 0 8 4 15 10 15 5 0 7 -7 4
-15z m-566 -50 c-3 -13 0 -26 6 -29 6 -2 3 -5 -6 -5 -10 -1 -18 -7 -18 -15 0
-8 -3 -23 -6 -33 -5 -17 -5 -17 9 0 13 15 15 15 20 3 4 -9 -1 -19 -9 -24 -8
-5 -16 -18 -17 -30 -1 -12 -5 -22 -10 -22 -4 0 -6 -13 -4 -29 3 -16 -1 -41 -8
-54 -7 -14 -11 -27 -9 -30 2 -2 -5 -28 -15 -58 -11 -30 -20 -45 -20 -34 -1 17
-3 17 -11 5 -9 -13 -10 -13 -11 0 0 8 -5 2 -10 -15 -5 -19 -5 -31 2 -36 6 -3
2 -8 -9 -11 -20 -6 -20 -4 -6 41 8 25 21 70 30 99 16 53 32 74 19 25 -9 -38 3
-24 15 16 5 19 5 29 -1 26 -10 -7 -12 6 -3 29 3 9 11 13 17 9 7 -4 8 0 4 11
-4 10 5 55 20 102 27 83 40 108 31 59z m614 -107 c-8 -8 -9 -4 -5 13 4 13 8
18 11 10 2 -7 -1 -18 -6 -23z m37 -8 c0 -10 -3 -8 -9 5 -12 27 -12 43 0 25 5
-8 9 -22 9 -30z m-9 -36 c0 -8 -5 -12 -10 -9 -6 4 -8 11 -5 16 9 14 15 11 15
-7z m-1758 -123 c-2 -9 5 -10 20 -6 18 5 20 4 8 -4 -21 -15 -50 -14 -46 2 1 6
1 9 -1 4 -3 -4 -9 -5 -14 -2 -5 4 -6 0 -3 -8 6 -17 -21 -41 -36 -32 -8 5 -6
13 5 25 16 18 16 18 -7 14 -12 -2 -7 2 12 10 40 17 66 16 62 -3z m2824 0 c-3
-5 4 -11 17 -15 33 -9 44 -7 27 5 -10 7 -11 9 -2 7 26 -7 7 -23 -28 -24 -47
-2 -81 -14 -73 -27 3 -6 1 -7 -5 -3 -12 7 -11 40 0 51 3 4 9 1 14 -6 5 -8 3
-10 -6 -4 -9 5 -11 4 -6 -4 6 -8 15 -6 34 8 30 23 36 25 28 12z m-2921 -19
c24 -17 14 -38 -23 -48 -31 -8 -39 -8 -39 3 0 8 7 11 17 8 11 -3 17 0 17 10 0
8 -5 15 -11 15 -6 0 -4 5 4 10 18 12 22 12 35 2z m1934 -40 c1 -7 -3 -10 -9
-7 -5 3 -10 1 -10 -4 0 -6 -7 -11 -15 -11 -21 0 -19 47 3 59 17 10 30 -5 31
-37z m1103 18 c-3 -12 17 -10 65 6 17 6 17 6 0 -7 -17 -14 -16 -15 15 -17 25
-2 29 0 18 8 -9 6 -10 10 -3 10 7 0 16 -6 20 -12 11 -18 49 -47 39 -30 -4 6
-5 12 -2 12 9 0 38 -61 32 -68 -3 -3 -6 0 -6 7 0 7 -4 10 -9 7 -12 -8 -52 29
-43 39 4 5 1 5 -5 1 -7 -4 -23 -1 -35 5 -13 7 -30 13 -38 14 -8 1 -23 2 -32 3
-9 1 -24 9 -32 18 -9 9 -16 11 -16 4 0 -6 -5 -8 -11 -4 -8 5 -8 9 1 14 18 11
46 5 42 -10z m-3107 1 c-6 -5 -23 -12 -40 -15 -28 -6 -28 -5 5 8 43 18 46 18
35 7z m363 -46 c-2 -1 -12 -7 -24 -13 -16 -8 -21 -8 -21 3 0 7 7 11 16 8 13
-4 13 -2 -1 10 -27 22 -21 30 7 11 14 -9 24 -18 23 -19z m2467 10 c-16 -14
-34 -25 -40 -25 -9 0 55 49 65 49 3 0 -8 -11 -25 -24z m-2850 3 c3 -3 -2 -11
-12 -19 -11 -9 -14 -10 -9 -1 4 6 5 12 2 12 -3 0 -14 -15 -23 -34 -10 -19 -26
-50 -37 -70 -10 -21 -23 -33 -29 -29 -8 5 -8 8 0 10 6 2 9 13 6 23 -3 11 -10
17 -15 14 -5 -4 -2 8 6 25 9 17 24 31 34 31 13 0 14 2 3 9 -10 7 -10 10 -1 16
7 4 16 1 21 -6 5 -8 9 -9 9 -3 0 5 -4 14 -10 20 -6 6 2 9 21 8 16 0 31 -3 34
-6z m430 -48 c-4 -6 10 -20 30 -31 23 -14 33 -25 27 -31 -13 -13 -55 9 -46 24
5 7 2 9 -8 6 -10 -4 -23 4 -37 23 -17 23 -18 27 -4 22 11 -5 14 -3 8 6 -6 10
-3 11 14 1 12 -6 19 -15 16 -20z m1594 7 c0 -9 -2 -8 -6 1 -2 6 -10 9 -15 6
-7 -4 -8 -2 -4 5 9 13 26 5 25 -12z m741 -12 c0 -2 -10 -9 -22 -15 -22 -11
-22 -10 -4 4 21 17 26 19 26 11z m-2120 -123 c3 -3 -3 -2 -13 1 -11 4 -16 3
-12 -3 3 -6 1 -10 -6 -10 -7 0 -10 -2 -7 -5 3 -3 17 -1 31 4 19 7 28 6 37 -4
8 -9 8 -15 0 -20 -6 -4 -9 -3 -8 2 3 9 -5 13 -29 13 -15 0 -16 -2 -3 -10 8 -5
10 -10 4 -10 -19 0 -65 42 -60 55 5 14 -12 35 -28 35 -5 0 -1 -7 10 -15 10 -8
15 -15 10 -15 -5 0 -18 8 -29 18 -20 16 -20 16 -13 -3 6 -16 5 -17 -5 -8 -10
10 -9 15 1 28 8 9 8 15 2 15 -6 0 -16 -8 -21 -17 -6 -10 -11 -13 -11 -6 0 6 5
15 10 18 8 5 7 12 -2 22 -11 14 128 -70 142 -85z m2040 73 c0 -2 -10 -9 -22
-15 -22 -11 -22 -10 -4 4 21 17 26 19 26 11z m684 -52 c15 -25 25 -51 23 -57
-3 -6 0 -20 6 -31 9 -17 8 -18 -4 -8 -12 10 -15 8 -16 -9 -3 -33 -20 -43 -18
-11 0 15 -12 52 -27 81 -31 58 -29 85 4 55 21 -18 21 -18 9 5 -22 42 -3 22 23
-25z m-737 12 c0 -8 -2 -13 -5 -10 -3 2 -14 0 -26 -6 -17 -8 -16 -6 4 10 14
11 25 21 26 21 0 0 1 -7 1 -15z m-1907 -80 c0 -2 -6 -5 -13 -8 -8 -3 -14 1
-14 8 0 7 6 11 14 8 7 -3 13 -6 13 -8z m1787 8 c-4 -3 -1 -13 6 -21 11 -13 9
-14 -10 -1 -16 9 -19 16 -10 21 15 9 23 10 14 1z m-2688 -24 c-5 -10 -6 -26
-2 -36 3 -10 2 -15 -2 -11 -14 13 -13 65 1 65 9 0 10 -5 3 -18z m3561 -66
c-11 -17 -11 -17 -6 0 3 10 6 24 7 30 0 9 2 9 5 0 3 -7 0 -20 -6 -30z m-1697
-13 c-25 -10 -31 -22 -10 -17 6 1 11 -4 9 -12 -2 -11 9 -13 60 -8 41 3 55 2
41 -4 -33 -12 -28 -19 13 -19 19 0 33 4 29 9 -3 5 -1 12 5 16 5 3 10 1 10 -4
0 -12 39 -15 64 -5 9 3 14 9 12 13 -3 4 7 6 22 5 70 -4 68 -4 52 -15 -12 -8
-9 -9 12 -5 14 3 37 2 50 -3 16 -7 18 -10 6 -10 -9 -1 -20 -6 -23 -11 -6 -10
21 -9 40 1 6 3 16 4 23 3 6 -1 18 -2 25 -3 8 -1 8 -4 -3 -12 -12 -8 -8 -9 14
-6 17 3 36 3 44 0 25 -10 -8 -22 -47 -17 -33 4 -34 4 -11 -6 14 -6 37 -10 52
-7 17 2 29 -2 33 -11 3 -9 13 -12 26 -9 22 6 49 -13 49 -33 0 -7 16 -28 35
-47 33 -33 38 -53 12 -53 -7 0 -6 4 3 10 13 8 12 10 -2 10 -10 0 -18 -7 -18
-15 0 -8 6 -15 14 -15 11 0 13 -10 9 -42 -4 -29 -3 -39 5 -34 7 4 12 17 12 29
0 12 11 30 24 39 23 16 25 16 46 -2 13 -11 29 -20 37 -20 7 0 13 -10 13 -22 0
-19 2 -20 10 -8 13 21 12 12 -5 -35 -8 -22 -14 -63 -15 -91 0 -66 -11 -74 -80
-63 -61 10 -160 -4 -197 -27 -13 -8 -29 -27 -37 -43 -14 -27 -14 -29 9 -41 17
-9 25 -24 30 -57 3 -25 5 -47 3 -49 -3 -2 -19 -7 -36 -10 -27 -6 -31 -4 -26
10 3 9 13 16 21 16 8 0 11 -4 8 -10 -4 -6 1 -7 12 -3 14 6 11 9 -16 21 -28 11
-36 11 -42 0 -5 -7 -7 -18 -5 -23 5 -15 -33 -16 -58 -3 -20 11 -20 10 -3 -9 9
-11 17 -27 17 -36 0 -8 8 -18 18 -20 16 -4 16 -5 -1 -6 -12 -1 -22 10 -28 28
-7 21 -19 32 -39 36 -21 5 -39 21 -62 58 -43 68 -43 67 -19 67 12 0 21 -4 21
-10 0 -5 5 -10 11 -10 5 0 7 4 4 10 -3 6 1 7 10 4 22 -9 0 -35 -23 -28 -13 4
-12 2 3 -11 11 -9 19 -18 18 -20 -8 -15 -1 -26 15 -23 19 4 24 32 5 34 -24 3
-25 4 -13 19 7 8 15 13 19 10 4 -2 5 9 3 25 -2 17 -15 36 -29 45 -20 13 -23
22 -18 42 5 21 0 32 -25 55 -32 28 -46 36 -35 18 8 -14 -8 -13 -22 1 -6 6 -9
17 -6 25 5 15 -39 30 -56 19 -11 -6 -16 23 -12 75 2 36 -9 47 -54 55 -30 5
-36 4 -25 -4 11 -8 11 -11 3 -12 -7 -1 -17 -3 -23 -4 -5 -1 -14 -3 -20 -4 -19
-2 -10 -21 9 -21 11 0 23 -5 26 -10 7 -11 -18 -8 -47 4 -9 4 -25 3 -37 -3 -25
-14 -44 -14 -36 -1 10 16 -7 12 -27 -7 -19 -17 -25 -39 -8 -28 6 3 10 2 10 -4
0 -6 7 -8 17 -4 13 5 15 2 11 -15 -4 -12 -2 -20 2 -17 5 3 16 2 25 -1 13 -5
14 -8 3 -15 -9 -6 -9 -9 -1 -9 7 0 17 8 22 18 6 9 11 12 11 6 0 -6 14 -11 32
-12 48 -1 129 -23 122 -33 -3 -5 2 -9 11 -9 10 0 13 5 9 13 -5 8 -3 8 9 -2 9
-7 14 -17 11 -22 -3 -5 0 -9 5 -9 6 0 10 -3 9 -7 -2 -12 14 -47 25 -54 6 -4 5
-9 -1 -12 -5 -4 -17 11 -26 32 -36 79 -181 119 -244 66 -17 -14 -35 -25 -41
-25 -6 0 -18 -11 -27 -25 -9 -14 -25 -25 -35 -25 -11 0 -16 -5 -13 -13 6 -16
-67 -77 -93 -78 -10 0 -13 -3 -6 -5 7 -3 9 -12 6 -20 -3 -7 -10 -11 -16 -7 -7
4 -8 0 -4 -11 5 -14 3 -17 -8 -12 -8 3 -14 2 -13 -2 4 -15 -35 -101 -43 -96
-5 3 -6 11 -3 17 4 7 3 8 -2 4 -5 -5 -9 -14 -9 -20 0 -7 -12 -12 -28 -13 -34
-1 -46 -12 -27 -24 19 -12 33 -13 26 -1 -3 5 3 11 13 14 17 4 16 0 -7 -47 -48
-97 -84 -148 -94 -134 -5 8 -6 3 -2 -13 3 -17 1 -30 -7 -35 -9 -5 -10 -2 -6
10 4 9 3 15 -2 12 -5 -3 -11 -15 -14 -26 -3 -11 -1 -18 4 -14 12 7 11 0 -2
-30 -7 -14 -17 -23 -23 -19 -6 3 -8 3 -4 -2 4 -4 -5 -33 -21 -64 -16 -31 -32
-66 -36 -78 -7 -26 -62 -58 -62 -37 0 7 4 11 9 8 4 -3 8 5 9 18 0 13 3 17 6
11 6 -17 20 -16 26 1 3 8 -1 13 -10 12 -9 0 -18 5 -21 13 -3 9 1 11 16 7 13
-5 22 -1 26 10 6 14 4 15 -10 3 -14 -11 -15 -10 -12 6 1 10 -3 20 -10 22 -8 3
-10 -1 -5 -13 4 -11 2 -15 -4 -11 -6 4 -10 -3 -10 -16 -1 -12 -1 -27 -2 -33
-2 -16 -31 -13 -31 3 0 7 -9 33 -21 58 -21 44 -21 44 -43 27 -14 -10 -21 -24
-18 -34 2 -10 0 -18 -6 -18 -5 0 -12 -9 -15 -20 -4 -15 -14 -20 -36 -20 -17 0
-31 -4 -31 -10 0 -5 10 -10 22 -10 21 0 21 0 2 -18 -18 -18 -20 -18 -38 -1
-10 10 -22 17 -25 14 -4 -2 -13 1 -21 6 -13 8 -12 11 3 20 18 11 24 59 7 59
-5 0 -10 9 -10 20 0 11 -4 20 -10 20 -5 0 -10 7 -10 16 0 15 -23 44 -34 44 -3
0 -6 -9 -6 -19 0 -11 -4 -22 -9 -25 -17 -11 -20 -46 -4 -46 10 0 14 6 10 20
-3 11 -1 18 3 15 10 -6 8 -65 -3 -82 -5 -7 -18 -11 -30 -9 -12 3 -26 5 -30 5
-5 1 -6 5 -2 10 3 6 -3 8 -14 6 -10 -2 -27 3 -38 11 -17 15 -17 15 1 6 14 -7
24 -6 33 3 17 17 17 18 -8 46 -19 22 -21 22 -30 6 -7 -12 -18 -16 -38 -12 -20
3 -31 0 -35 -11 -3 -8 -2 -13 3 -10 5 3 23 -8 41 -24 18 -17 28 -30 24 -30 -5
0 0 -7 10 -15 11 -8 25 -15 30 -15 6 0 2 7 -8 15 -11 8 -15 15 -9 15 7 0 19
-7 27 -16 9 -8 22 -12 28 -9 7 4 5 0 -5 -8 -11 -9 -14 -18 -8 -21 5 -4 13 -2
16 4 5 7 11 8 19 1 6 -5 28 -8 49 -6 34 3 37 1 37 -22 0 -22 3 -25 30 -21 18
3 31 0 34 -9 3 -7 11 -13 18 -13 9 0 8 3 -2 10 -9 6 -10 10 -3 10 6 0 15 -5
19 -11 4 -8 9 -7 16 2 6 10 7 7 3 -8 -5 -19 -3 -22 12 -16 10 4 -13 -21 -52
-56 -70 -62 -70 -62 -85 -40 -8 12 -39 47 -67 79 -29 31 -53 64 -53 74 0 9
-16 26 -35 37 -19 12 -35 26 -35 32 0 6 -7 19 -17 29 -24 27 -91 24 -137 -7
-21 -14 -41 -23 -46 -20 -5 3 -12 0 -16 -6 -5 -8 -3 -9 7 -4 8 4 -2 -8 -20
-28 -19 -21 -40 -37 -45 -37 -6 0 -2 7 8 15 15 11 16 15 5 15 -8 0 -20 -5 -27
-12 -15 -15 -16 -42 0 -32 12 8 12 7 -34 -65 -28 -45 -37 -49 -17 -8 10 21 9
21 -10 -2 -23 -25 -27 -41 -11 -41 6 0 10 -4 10 -10 0 -19 -17 -10 -28 15 -8
17 -8 25 -1 25 6 0 7 5 3 12 -6 9 -9 9 -12 0 -2 -7 -8 -12 -13 -12 -4 0 -6 7
-3 15 4 8 1 15 -5 15 -6 0 -11 -6 -11 -14 0 -8 -7 -13 -17 -12 -12 1 -17 -9
-19 -41 -1 -24 2 -43 6 -43 4 0 7 18 6 40 0 22 2 40 6 40 11 0 26 -33 23 -51
-2 -13 3 -16 26 -12 23 3 29 0 29 -14 0 -12 -3 -14 -8 -6 -5 8 -12 8 -25 -2
-10 -7 -14 -16 -8 -19 5 -3 12 0 14 6 3 8 6 5 6 -6 1 -13 -4 -17 -17 -14 -11
3 -19 0 -19 -7 0 -7 6 -11 13 -8 9 3 11 -2 7 -16 -6 -24 -23 -39 -23 -21 0 7
-7 10 -15 6 -8 -3 -15 -1 -15 5 0 6 -5 7 -11 3 -8 -4 -7 -9 2 -15 7 -4 16 -6
20 -3 21 12 16 -41 -12 -131 -31 -102 -47 -121 -69 -85 -17 28 -20 3 -3 -30
15 -30 17 -32 24 -14 6 15 8 15 8 3 1 -24 -24 -81 -32 -72 -4 3 -7 -2 -7 -11
0 -13 -5 -16 -17 -12 -10 4 -14 4 -10 0 8 -8 -60 -69 -77 -69 -6 0 -11 5 -11
10 -1 6 -7 21 -14 34 -16 29 -26 335 -13 371 5 13 6 39 1 58 -4 18 -3 48 3 65
5 18 11 56 12 86 2 29 9 56 15 60 6 4 9 14 6 22 -3 8 4 42 15 74 11 33 18 50
16 38 -2 -12 -1 -22 3 -21 29 3 51 -4 45 -14 -4 -7 2 -4 14 6 14 12 22 14 22
7 0 -7 5 -9 10 -6 15 9 12 25 -5 25 -8 0 -14 6 -13 13 2 6 -7 12 -19 12 -32 1
-39 12 -19 34 13 14 14 20 4 23 -10 4 -9 8 4 21 12 12 18 14 21 4 2 -6 3 9 1
35 -2 47 11 72 26 48 4 -7 7 7 6 31 -1 37 2 44 17 42 16 -1 18 4 15 29 l-5 30
18 -23 c10 -13 19 -27 19 -32 0 -4 14 7 31 25 l30 33 -3 -36 c-3 -28 0 -35 10
-32 9 4 11 15 7 34 -7 31 18 79 41 79 22 0 16 17 -7 23 -30 8 -23 53 9 49 16
-2 25 4 32 23 5 14 9 29 9 33 -3 20 2 33 11 27 6 -3 18 7 28 24 9 17 26 34 37
39 17 8 15 9 -12 8 -17 -1 -29 -4 -27 -7 2 -4 -3 -9 -11 -13 -9 -3 -12 -12 -8
-22 4 -12 3 -15 -5 -10 -7 4 -12 1 -13 -6 0 -7 -4 -4 -9 7 l-9 20 -2 -20 c-1
-11 -3 -26 -3 -33 -1 -8 -9 -19 -18 -26 -10 -7 -26 -32 -37 -55 -18 -42 -18
-42 -24 -14 -3 15 -1 33 4 38 7 7 8 4 4 -7 -12 -31 3 -19 19 15 8 17 14 41 13
52 -1 14 3 19 14 17 11 -1 18 7 22 28 5 23 10 28 23 23 14 -5 16 -2 12 15 -6
23 15 48 31 37 6 -3 9 0 6 7 -3 8 7 25 21 38 15 14 24 19 19 11 -15 -26 43 20
60 47 l16 27 -23 -27 c-13 -16 -28 -28 -33 -28 -11 0 34 49 57 61 11 6 19 5
24 -3 4 -7 3 -8 -4 -4 -7 4 -12 2 -12 -4 0 -8 14 -10 43 -6 27 4 35 3 22 -3
-14 -6 -4 -8 35 -8 30 0 42 2 25 4 -16 3 -33 10 -37 16 -12 18 -9 77 3 77 5 0
7 5 4 10 -3 6 1 10 10 10 10 0 14 -5 10 -12 -4 -7 2 -2 13 12 11 13 18 28 15
32 -2 5 -1 8 4 7 21 -4 34 2 27 13 -5 8 -2 9 12 4 30 -13 63 -15 70 -5 3 5 0
8 -8 7 -7 -2 -12 3 -10 10 1 8 -2 11 -8 7 -6 -3 -8 -11 -5 -16 4 -5 2 -9 -4
-9 -24 0 -16 17 20 43 21 16 39 23 39 17 0 -6 -7 -13 -15 -16 -8 -4 -13 -10
-10 -14 3 -5 16 1 28 13 12 12 18 25 13 28 -5 4 1 12 14 19 12 7 20 8 16 2 -3
-5 1 -12 9 -15 9 -4 12 -1 9 7 -6 17 55 31 70 16 17 -17 55 -11 68 10 7 11 21
20 30 20 16 0 18 -10 18 -70 0 -64 2 -70 20 -70 20 0 21 5 18 83 -2 59 -6 81
-15 80 -21 -5 -15 15 7 22 11 4 18 9 16 13 -2 4 8 8 22 9 25 1 26 0 7 -13 -10
-8 -25 -14 -33 -14 -7 0 -10 -5 -7 -10 4 -6 17 -3 33 9 23 16 31 17 52 7 32
-16 52 -15 58 2 3 10 -4 13 -24 12 -44 -3 -51 -1 -58 16 -5 12 0 15 27 13 18
-2 39 1 47 6 7 5 39 10 69 11 37 2 51 0 41 -6 -12 -8 -12 -10 3 -16 9 -3 24
-1 31 5 10 8 16 9 21 1 10 -15 28 -12 22 4 -4 10 -1 13 9 9 7 -3 14 -9 14 -14
0 -5 9 -9 21 -9 11 0 17 5 14 10 -3 6 -2 10 4 10 26 0 -5 30 -36 36 -30 6 -33
8 -18 17 12 6 20 6 25 -2 4 -7 17 -13 28 -14 12 -1 22 -6 22 -12 0 -5 5 -3 10
5 7 12 12 12 22 2 6 -6 26 -12 43 -11 24 0 18 4 -30 19 l-60 18 45 3 c103 9
245 8 223 -1z m42 0 c3 -5 1 -10 -4 -10 -6 0 -11 5 -11 10 0 6 2 10 4 10 3 0
8 -4 11 -10z m140 -10 c17 -7 14 -9 -13 -9 -20 -1 -31 3 -27 9 7 12 13 12 40
0z m-2015 -35 c0 -5 -5 -3 -10 5 -5 8 -10 20 -10 25 0 6 5 3 10 -5 5 -8 10
-19 10 -25z m1910 25 c-8 -5 -22 -9 -30 -9 -10 0 -8 3 5 9 27 12 43 12 25 0z
m1591 -51 c-15 -32 -19 -37 -18 -19 1 14 8 31 15 38 6 7 12 21 13 30 0 9 3 12
5 6 3 -6 -4 -31 -15 -55z m-2104 35 c-3 -3 -12 -4 -19 -1 -8 3 -5 6 6 6 11 1
17 -2 13 -5z m2066 -66 c-8 -13 -9 -18 -12 -38 0 -5 -9 -10 -18 -10 -15 0 -16
2 -3 10 8 5 11 10 6 10 -5 0 -1 9 9 20 20 22 30 27 18 8z m-2343 -18 c0 -5 -2
-10 -4 -10 -3 0 -8 5 -11 10 -3 6 -1 10 4 10 6 0 11 -4 11 -10z m1273 3 c-7
-2 -19 -2 -25 0 -7 3 -2 5 12 5 14 0 19 -2 13 -5z m1061 -77 c-15 -37 -28 -65
-31 -63 -4 4 1 19 32 95 29 68 27 42 -1 -32z m-3364 -38 c7 1 9 -2 5 -8 -3 -5
-2 -10 4 -10 5 0 15 -16 22 -34 7 -19 16 -33 21 -30 14 9 8 -30 -7 -50 -8 -11
-15 -17 -15 -14 0 4 -3 15 -6 25 -5 15 -4 15 5 3 17 -24 14 10 -5 40 l-15 25
7 -25 c12 -46 -4 -16 -35 65 -35 89 -39 110 -10 50 10 -22 23 -39 29 -37z
m2405 52 c-3 -5 -14 -10 -23 -9 -14 0 -13 2 3 9 27 11 27 11 20 0z m-2407 -25
c-3 -3 -9 2 -12 12 -6 14 -5 15 5 6 7 -7 10 -15 7 -18z m2476 0 c17 -13 18
-15 3 -15 -9 0 -17 5 -17 11 0 6 -9 8 -21 4 -15 -5 -19 -4 -15 4 10 15 27 13
50 -4z m107 -50 c5 4 6 0 4 -7 -4 -9 5 -19 22 -26 20 -8 22 -10 5 -6 -15 4
-32 -1 -45 -13 l-22 -18 19 23 c20 23 10 31 -13 10 -9 -9 -12 -9 -7 -1 3 6 1
13 -5 15 -8 3 -5 11 7 22 11 12 19 15 22 7 2 -6 8 -9 13 -6z m729 -75 c0 -5
-2 -10 -4 -10 -3 0 -8 5 -11 10 -3 6 -1 10 4 10 6 0 11 -4 11 -10z m-35 -89
c-25 -54 -29 -59 -40 -44 -11 14 -10 23 2 47 10 20 17 25 23 16 5 -8 11 -1 19
21 6 18 14 30 17 26 3 -3 -6 -33 -21 -66z m-1625 49 c0 -5 -5 -10 -11 -10 -5
0 -7 5 -4 10 3 6 8 10 11 10 2 0 4 -4 4 -10z m1071 -7 c13 -16 12 -17 -3 -4
-10 7 -18 15 -18 17 0 8 8 3 21 -13z m-2131 -18 c0 -8 -5 -17 -12 -21 -8 -5
-9 -1 -4 12 6 15 5 17 -5 7 -21 -21 -34 -15 -14 7 19 21 35 18 35 -5z m1108
12 c13 -15 1 -39 -14 -29 -6 4 -13 15 -17 25 -8 20 15 24 31 4z m1016 -24 c8
-19 2 -16 -25 13 -23 25 -23 26 -2 13 13 -7 25 -19 27 -26z m-23 -40 c-12 -8
-29 -12 -39 -10 -12 3 -11 5 6 6 12 0 25 8 28 16 4 8 10 12 16 9 5 -3 0 -13
-11 -21z m-733 -39 c5 3 9 -11 9 -32 0 -20 -2 -29 -4 -19 -2 9 -8 17 -12 17
-4 0 -13 12 -20 27 -11 23 -10 25 3 14 8 -7 19 -10 24 -7z m710 -71 c1 28 6
46 12 42 5 -3 17 6 26 20 15 23 21 25 63 20 81 -11 93 -15 87 -30 -3 -8 0 -14
7 -12 7 1 11 -7 9 -18 -2 -11 1 -16 5 -10 4 6 14 11 21 13 17 3 45 -25 37 -38
-4 -6 -3 -10 2 -9 18 3 33 -2 31 -10 -2 -5 8 -19 22 -32 32 -30 70 -84 70 -98
0 -10 19 -36 49 -68 10 -11 11 -17 2 -26 -8 -8 -11 -7 -11 5 0 8 -10 28 -22
43 -19 25 -22 26 -28 10 -6 -17 -7 -17 -13 -2 -3 9 -3 17 2 17 9 0 8 37 -2 46
-8 8 -8 6 -11 -47 -1 -33 1 -36 21 -34 24 2 32 -22 14 -40 -14 -15 -17 -58 -5
-62 6 -2 14 6 17 18 3 11 10 18 16 14 14 -8 34 -46 24 -44 -26 4 -42 -4 -45
-23 -5 -35 -28 -34 -28 2 0 29 -1 30 -17 15 -14 -14 -14 -18 -2 -27 11 -7 11
-11 2 -15 -7 -2 -13 -13 -13 -24 0 -17 8 -19 69 -19 82 0 102 6 94 28 -4 14
-3 15 5 2 6 -8 8 -18 6 -22 -3 -5 2 -15 10 -24 12 -12 16 -12 16 -2 0 10 2 10
9 -1 6 -9 4 -23 -6 -38 -20 -30 -35 -30 -27 1 6 26 -10 44 -22 25 -4 -8 -3 -9
4 -5 7 4 12 3 12 -3 0 -5 -5 -13 -11 -16 -7 -5 -5 -15 5 -31 9 -13 16 -32 16
-43 0 -18 -3 -19 -31 -9 -26 9 -33 8 -41 -6 -5 -9 -15 -16 -22 -16 -8 0 -24
-6 -37 -12 -23 -12 -23 -14 -7 -30 14 -14 18 -15 18 -4 0 14 48 32 58 21 3 -3
0 -5 -6 -5 -7 0 -12 -5 -12 -11 0 -6 10 -8 23 -5 12 3 16 3 8 0 -11 -5 -11 -8
0 -16 10 -7 8 -8 -8 -3 -12 3 -24 1 -27 -4 -7 -11 33 -43 45 -36 4 3 10 -2 13
-11 4 -9 13 -14 21 -10 8 3 14 0 12 -6 -1 -6 3 -12 10 -15 8 -3 11 3 8 16 -3
15 1 21 16 21 23 0 25 -18 3 -34 -14 -11 -11 -16 20 -40 20 -15 49 -29 63 -30
15 -2 29 -8 31 -14 6 -20 -59 8 -113 48 -94 69 -143 93 -180 87 -33 -5 -120
27 -111 42 2 3 -12 6 -32 7 -21 0 -68 13 -105 28 -81 32 -166 48 -218 40 -20
-4 -39 -2 -42 3 -3 5 4 9 16 9 118 1 134 8 112 50 -8 16 -15 35 -15 42 0 23
-33 72 -46 69 -7 -1 -13 1 -13 6 -2 22 1 26 17 21 15 -5 15 -4 1 8 -16 13 -38
114 -22 105 4 -3 6 15 4 40 -2 35 0 44 9 38 8 -5 11 -4 7 2 -4 6 3 27 13 49
15 28 20 61 22 124 l2 85 6 -70 c6 -61 7 -64 8 -22z m232 31 c0 -3 -7 -1 -15
6 -8 7 -15 17 -15 22 0 5 7 3 15 -6 8 -8 15 -18 15 -22z m-1005 -53 c-10 -9
-15 -11 -11 -4 3 6 2 14 -4 18 -5 3 -10 11 -10 16 0 6 5 7 10 4 6 -3 10 0 10
7 0 8 5 5 11 -6 9 -14 7 -22 -6 -35z m33 -26 c-3 -3 -9 2 -12 12 -6 14 -5 15
5 6 7 -7 10 -15 7 -18z m40 -10 c-3 -3 -9 2 -12 12 -6 14 -5 15 5 6 7 -7 10
-15 7 -18z m-78 -10 c0 -18 40 -76 49 -71 3 2 13 -11 22 -30 l16 -34 -33 28
c-35 29 -34 28 -58 85 -9 21 -12 37 -6 37 5 0 10 -7 10 -15z m-1622 -89 c-7
-8 -15 -12 -17 -11 -5 6 10 25 20 25 5 0 4 -6 -3 -14z m1777 -66 c8 0 15 -5
15 -11 0 -5 -4 -8 -9 -4 -5 3 -12 1 -15 -4 -3 -5 7 -8 24 -7 24 2 32 -4 44
-28 9 -17 16 -26 16 -21 0 11 30 -36 47 -76 6 -14 8 -31 4 -37 -4 -7 -21 10
-44 46 -20 31 -55 72 -78 91 -31 25 -38 36 -27 42 10 7 10 9 1 9 -7 0 -13 8
-13 18 1 16 1 16 11 0 5 -10 17 -18 24 -18z m417 -37 c4 -77 2 -86 -11 -52 -7
16 -10 19 -10 7 -1 -9 -6 -20 -13 -24 -6 -4 -8 -3 -4 4 3 6 2 13 -4 17 -5 3
-10 -2 -11 -12 -1 -24 -27 45 -28 74 -1 12 4 25 10 28 6 4 9 -2 8 -17 -4 -42
1 -69 11 -63 6 3 8 17 5 31 -3 13 -7 35 -10 49 -5 22 -2 25 24 25 29 0 29 0
33 -67z m-225 35 c-3 -8 -6 -5 -6 6 -1 11 2 17 5 13 3 -3 4 -12 1 -19z m-2007
-8 c0 -5 -2 -10 -4 -10 -3 0 -8 5 -11 10 -3 6 -1 10 4 10 6 0 11 -4 11 -10z
m2017 -32 c-3 -8 -6 -5 -6 6 -1 11 2 17 5 13 3 -3 4 -12 1 -19z m-2022 -28 c3
-6 -1 -10 -10 -10 -9 0 -13 -4 -10 -10 3 -5 2 -16 -2 -24 -6 -11 -12 -9 -26
10 -16 21 -16 23 -1 17 14 -5 16 -2 12 20 -4 23 -3 25 13 17 10 -6 21 -15 24
-20z m2922 6 c-4 -11 -25 -16 -40 -8 -4 2 -3 10 3 17 13 16 43 8 37 -9z m-912
-78 c16 -24 22 -38 14 -31 -15 12 -53 73 -46 73 2 0 17 -19 32 -42z m945 32
c0 -5 -7 -7 -15 -4 -8 4 -15 8 -15 10 0 2 7 4 15 4 8 0 15 -4 15 -10z m-793
-16 c-3 -3 -12 -4 -19 -1 -8 3 -5 6 6 6 11 1 17 -2 13 -5z m203 -9 c-14 -17
-24 -20 -15 -5 4 6 -5 10 -19 10 -14 0 -26 -5 -26 -11 0 -5 5 -7 12 -3 7 4 8
3 4 -4 -5 -9 -12 -8 -26 1 -19 11 -19 12 -2 19 9 3 32 7 51 7 29 1 32 -1 21
-14z m534 3 c-3 -4 0 -8 5 -8 6 0 11 -7 11 -15 0 -16 -9 -19 -34 -9 -23 9 -20
40 3 40 11 0 17 -4 15 -8z m-746 -95 c-10 -2 -26 -2 -35 0 -10 3 -2 5 17 5 19
0 27 -2 18 -5z m77 -31 c-3 -3 -11 0 -18 7 -9 10 -8 11 6 5 10 -3 15 -9 12
-12z m-193 -166 c-4 -15 -12 -1 -27 49 -13 39 -25 79 -29 90 -4 11 8 -11 27
-49 21 -42 32 -77 29 -90z m248 122 c0 -12 -6 -9 -26 13 -19 22 -19 22 4 8 12
-8 22 -17 22 -21z m725 12 c-3 -5 -10 -10 -16 -10 -5 0 -9 5 -9 10 0 6 7 10
16 10 8 0 12 -4 9 -10z m-754 -37 c13 -16 12 -17 -3 -4 -10 7 -18 15 -18 17 0
8 8 3 21 -13z m1203 -83 c5 0 3 -6 -3 -14 -12 -15 -51 -18 -51 -5 0 4 -7 9
-14 12 -10 4 -13 1 -9 -9 3 -7 3 -14 0 -14 -3 0 -10 13 -15 29 l-10 30 46 -15
c26 -7 51 -14 56 -14z m-4064 -15 c-19 -7 -42 -13 -50 -13 -8 0 1 6 20 13 19
7 42 13 50 13 8 0 -1 -6 -20 -13z m-73 -21 c-3 -3 -12 -4 -19 -1 -8 3 -5 6 6
6 11 1 17 -2 13 -5z m-40 -10 c-3 -3 -12 -4 -19 -1 -8 3 -5 6 6 6 11 1 17 -2
13 -5z m-37 -8 c0 -2 -7 -7 -16 -10 -8 -3 -12 -2 -9 4 6 10 25 14 25 6z m4407
-2 c-3 -3 -12 -4 -19 -1 -8 3 -5 6 6 6 11 1 17 -2 13 -5z m-3093 -10 c24 -9
19 -26 -5 -19 -16 5 -19 4 -14 -5 5 -8 4 -11 -3 -6 -6 4 -9 13 -5 21 6 17 6
17 27 9z m3188 -15 c27 -6 48 -14 48 -19 0 -4 10 -6 23 -4 20 4 20 4 -3 -7
-33 -16 -91 -24 -70 -9 13 9 13 10 0 11 -10 0 -9 3 5 9 14 7 7 8 -28 6 -35 -2
-46 1 -43 10 3 7 2 15 -2 17 -4 2 0 2 8 0 8 -2 36 -9 62 -14z m-2927 1 c-3 -5
-11 -10 -16 -10 -6 0 -7 5 -4 10 3 6 11 10 16 10 6 0 7 -4 4 -10z m-1682 -7
c-7 -2 -19 -2 -25 0 -7 3 -2 5 12 5 14 0 19 -2 13 -5z m4474 1 c-3 -3 -12 -4
-19 -1 -8 3 -5 6 6 6 11 1 17 -2 13 -5z m-4550 -20 c-3 -3 -12 -4 -19 -1 -8 3
-5 6 6 6 11 1 17 -2 13 -5z m-45 -11 c-6 -2 -10 -8 -8 -11 2 -4 -11 -7 -30 -8
-43 -1 -43 3 -1 15 34 10 60 13 39 4z m1821 -10 c-7 -3 -15 -4 -18 -3 -3 0
-15 -9 -25 -22 -11 -13 -19 -19 -20 -15 0 10 31 42 41 42 4 0 11 3 15 8 4 4
10 4 13 1 3 -4 0 -9 -6 -11z m-1886 -45 c2 -17 0 -19 -7 -8 -5 8 -6 18 -4 22
8 12 10 10 11 -14z m3143 -13 c0 -5 -5 -3 -10 5 -5 8 -10 20 -10 25 0 6 5 3
10 -5 5 -8 10 -19 10 -25z m-1643 -37 c-3 -7 -5 -2 -5 12 0 14 2 19 5 13 2 -7
2 -19 0 -25z m-1556 -5 c-12 -20 -14 -14 -5 12 4 9 9 14 11 11 3 -2 0 -13 -6
-23z m5054 17 c-3 -5 -2 -10 3 -10 5 0 14 -10 20 -22 7 -15 11 -18 12 -8 0 8
7 0 16 -19 8 -19 12 -36 9 -39 -3 -3 -5 0 -5 6 0 6 -7 9 -15 6 -14 -6 -13 -8
2 -20 10 -7 14 -14 9 -14 -5 0 -3 -7 4 -14 9 -11 9 -19 0 -33 -10 -16 -10 -16
-5 3 3 14 0 24 -8 27 -21 8 -27 45 -10 62 13 13 13 15 -1 15 -9 0 -16 4 -16 9
0 5 -7 17 -16 25 -13 14 -12 36 2 36 3 0 2 -4 -1 -10z m33 -15 c-3 -3 -9 2
-12 12 -6 14 -5 15 5 6 7 -7 10 -15 7 -18z m-5058 -40 c0 -5 -5 -3 -10 5 -5 8
-10 20 -10 25 0 6 5 3 10 -5 5 -8 10 -19 10 -25z m1084 19 c17 -17 21 -34 8
-34 -5 0 -14 11 -20 25 -13 29 -10 31 12 9z m1554 -110 l-3 -59 -5 67 c-3 37
-1 63 3 59 4 -4 7 -35 5 -67z m2471 -4 c0 -10 -3 -8 -9 5 -12 27 -12 43 0 25
5 -8 9 -22 9 -30z m-3608 7 c-10 -9 -11 -8 -5 6 3 10 9 15 12 12 3 -3 0 -11
-7 -18z m1172 -22 c-7 -21 -13 -19 -13 6 0 11 4 18 10 14 5 -3 7 -12 3 -20z
m-2749 -1 c3 -8 2 -12 -4 -9 -6 4 -8 -8 -5 -32 4 -33 3 -35 -6 -13 -5 13 -7
35 -4 47 6 27 11 29 19 7z m2305 -44 c0 -10 -3 -8 -9 5 -12 27 -12 43 0 25 5
-8 9 -22 9 -30z m2862 17 c-10 -9 -11 -8 -5 6 3 10 9 15 12 12 3 -3 0 -11 -7
-18z m-2467 -62 c3 -8 1 -15 -4 -15 -6 0 -10 7 -10 15 0 8 2 15 4 15 2 0 6 -7
10 -15z m2451 -82 c-21 -57 -31 -70 -31 -43 0 11 3 20 7 20 3 0 12 18 19 40 7
22 15 38 18 35 3 -2 -3 -26 -13 -52z m-59 -93 c-2 -17 0 -28 5 -24 5 3 9 1 9
-3 0 -10 -90 -36 -97 -29 -2 2 9 7 26 11 17 4 29 11 25 16 -3 5 0 9 5 9 6 0
11 8 11 18 0 17 8 32 17 32 2 0 2 -14 -1 -30z m34 16 c0 -2 -8 -10 -17 -17
-16 -13 -17 -12 -4 4 13 16 21 21 21 13z m-5049 -21 c5 4 6 -1 2 -10 -5 -13
-7 -14 -14 -3 -5 7 -8 18 -8 23 0 6 3 4 6 -3 2 -6 9 -10 14 -7z m100 -23 c-7
-2 -18 1 -23 6 -8 8 -4 9 13 5 13 -4 18 -8 10 -11z m4857 9 c11 -6 10 -10 -4
-15 -9 -3 -19 -4 -22 -1 -3 3 1 5 9 5 11 0 11 2 -1 10 -8 5 -10 10 -5 10 6 0
16 -4 23 -9z m-3261 -7 c-3 -3 -12 -4 -19 -1 -8 3 -5 6 6 6 11 1 17 -2 13 -5z
m-1630 -18 c0 -8 -6 -12 -15 -9 -11 5 -11 7 0 14 7 5 13 9 14 9 0 0 1 -6 1
-14z m71 -25 c20 -6 32 -6 32 0 0 5 8 9 18 9 14 0 15 -2 2 -10 -17 -11 -17
-11 45 -15 17 -1 48 -6 70 -10 22 -5 49 -8 60 -7 17 2 17 1 5 -7 -13 -9 -12
-11 5 -12 39 -3 86 -19 81 -28 -3 -4 4 -13 15 -19 19 -12 19 -11 9 8 -14 26 1
26 20 1 13 -19 14 -19 26 -3 12 15 13 14 14 -10 0 -16 -2 -28 -4 -28 -2 0 -77
23 -167 51 -90 28 -189 57 -219 65 -52 14 -74 24 -54 24 5 0 24 -4 42 -9z
m4666 -6 c-3 -8 -14 -17 -25 -20 -11 -4 -17 -11 -14 -16 4 -5 -1 -9 -10 -9
-10 0 -14 5 -10 13 4 6 0 4 -8 -6 -15 -18 -76 -41 -85 -32 -3 3 9 8 26 11 18
4 29 11 25 17 -3 5 -2 7 4 4 5 -4 16 4 23 17 9 18 19 23 36 20 13 -2 24 0 24
6 0 5 4 10 10 10 5 0 7 -7 4 -15z m-3044 1 c0 -2 -7 -7 -16 -10 -8 -3 -12 -2
-9 4 6 10 25 14 25 6z m2744 -84 c2 -4 -2 -16 -10 -27 -13 -18 -14 -18 -14 8
0 25 13 36 24 19z m-2457 -28 c-3 -3 -12 -4 -19 -1 -8 3 -5 6 6 6 11 1 17 -2
13 -5z m-287 -26 c0 -18 -2 -20 -9 -8 -6 8 -7 18 -5 22 9 14 14 9 14 -14z
m-26 -23 c-4 -8 -8 -15 -10 -15 -2 0 -4 7 -4 15 0 8 4 15 10 15 5 0 7 -7 4
-15z m-26 -142 c-10 -2 -28 -2 -40 0 -13 2 -5 4 17 4 22 1 32 -1 23 -4z m-42
-16 c19 7 18 -11 -1 -27 -12 -10 -15 -10 -15 4 0 9 -4 16 -10 16 -5 0 -10 5
-10 12 0 9 3 9 11 1 6 -6 18 -9 25 -6z m-367 -34 c0 -25 -1 -26 -9 -8 -5 12
-9 14 -9 6 -1 -8 -3 -12 -6 -9 -8 7 5 38 16 38 5 0 9 -12 8 -27z m431 -4 c0
-5 -4 -7 -10 -4 -5 3 -10 -1 -10 -9 0 -8 -5 -18 -12 -22 -6 -4 -9 -3 -6 2 3 5
8 17 11 27 7 18 27 24 27 6z m80 -47 c0 -21 -7 -47 -15 -58 -14 -18 -14 -17
-5 9 5 16 10 42 10 58 0 16 2 29 5 29 3 0 5 -17 5 -38z m345 -36 c0 -14 -5
-22 -12 -19 -9 4 -10 10 -2 24 13 24 14 24 14 -5z m-539 -54 c-17 -16 -18 -16
-5 5 7 12 15 20 18 17 3 -2 -3 -12 -13 -22z m321 6 c-3 -8 -6 -5 -6 6 -1 11 2
17 5 13 3 -3 4 -12 1 -19z m-514 6 c-7 -3 -9 -13 -6 -22 4 -14 3 -14 -5 -2
-12 16 -7 30 11 29 9 0 9 -2 0 -5z m865 -29 c-3 -3 -9 2 -12 12 -6 14 -5 15 5
6 7 -7 10 -15 7 -18z m-758 -9 c0 -3 -4 -8 -10 -11 -5 -3 -10 -1 -10 4 0 6 5
11 10 11 6 0 10 -2 10 -4z m1205 -44 c-3 -3 -11 0 -18 7 -9 10 -8 11 6 5 10
-3 15 -9 12 -12z m1008 -29 c-13 -2 -33 -2 -45 0 -13 2 -3 4 22 4 25 0 35 -2
23 -4z m-2157 -69 c-4 -14 -11 -31 -16 -37 -6 -7 -19 -23 -30 -37 -12 -15 -7
1 12 37 36 68 44 77 34 37z m591 -21 c-3 -10 -5 -4 -5 12 0 17 2 24 5 18 2 -7
2 -21 0 -30z m-356 -49 l-9 -39 -1 36 c-1 20 2 39 6 42 12 13 13 0 4 -39z
m-1430 -73 c-18 -12 -4 -17 51 -20 38 -2 47 1 51 16 4 14 5 13 6 -4 1 -20 -4
-23 -39 -23 l-40 0 0 -90 c0 -75 -2 -88 -15 -84 -12 5 -15 24 -15 88 0 56 3
76 10 66 8 -12 10 -11 10 6 0 19 -5 20 -50 16 -46 -4 -50 -2 -50 17 0 18 6 21
48 21 30 0 42 -3 33 -9z m2573 -12 c-3 -6 -12 -8 -20 -5 -7 3 -16 1 -19 -4 -7
-12 -65 -14 -65 -2 0 4 11 8 25 9 14 1 36 3 50 4 14 1 22 6 18 12 -3 6 -1 7 6
3 6 -4 9 -12 5 -17z m76 -1 c0 -14 -8 -18 -37 -17 l-38 2 35 7 c36 8 37 9 7
15 -31 6 -30 13 2 11 22 0 31 -6 31 -18z m1650 11 c0 -6 -9 -9 -20 -6 -11 3
-18 1 -14 -4 9 -16 42 -10 47 9 4 13 5 12 6 -5 1 -18 -5 -22 -36 -25 l-38 -3
0 -87 c1 -78 -1 -88 -17 -88 -16 0 -18 10 -18 90 l0 90 -41 0 c-23 0 -38 4
-34 10 3 5 13 6 22 3 11 -4 14 -3 9 5 -5 9 0 9 20 2 24 -9 25 -9 14 5 -11 13
-6 15 44 15 35 0 56 -4 56 -11z m-2929 -52 c-13 -13 -15 1 -4 30 7 17 8 17 11
-1 2 -10 -1 -23 -7 -29z m1207 -44 c0 -38 -2 -51 -7 -38 -4 11 -6 38 -5 59 3
28 1 37 -7 29 -6 -6 -9 -38 -7 -76 1 -36 0 -63 -4 -60 -14 8 -9 141 5 146 21
7 24 -1 25 -60z m142 17 c0 -17 -7 -20 -50 -20 -37 0 -50 4 -50 14 0 11 14 16
48 19 26 2 48 4 50 5 1 1 2 -7 2 -18z m-2550 -5 c0 -11 -12 -15 -50 -15 -38 0
-50 4 -50 15 0 11 12 15 50 15 38 0 50 -4 50 -15z m2327 -1 c0 -10 -13 -14
-49 -14 -34 0 -48 4 -48 14 0 10 14 14 48 14 36 1 49 -3 49 -14z m1647 4 c-5
-9 -2 -9 9 1 15 12 17 11 17 -5 0 -17 -6 -18 -52 -15 -29 3 -44 7 -33 9 l20 5
-20 8 c-15 6 -9 8 23 8 32 1 41 -2 36 -11z m240 -3 c4 -12 -5 -15 -49 -15 -44
0 -53 3 -49 15 4 10 20 15 49 15 29 0 45 -5 49 -15z m-4130 -44 c-4 -20 -9
-39 -11 -43 -2 -5 -43 -7 -91 -6 -76 2 -79 2 -24 5 36 2 60 8 57 14 -4 5 1 12
9 15 9 3 16 15 16 25 0 10 5 19 11 19 5 0 8 4 5 9 -4 5 3 7 14 4 17 -5 19 -11
14 -42z m2521 21 c2 -12 0 -24 -5 -27 -5 -3 -8 8 -8 25 1 33 6 34 13 2z m21
-24 c-9 -53 -10 -53 -45 -51 -20 1 -58 2 -85 2 -51 1 -59 9 -14 13 17 1 24 7
21 16 -5 11 5 13 46 11 30 -2 56 2 63 9 7 7 9 12 5 12 -4 0 -3 9 3 20 16 30
17 25 6 -32z m1659 32 c7 0 15 3 18 8 2 4 2 2 1 -5 -2 -6 -6 -28 -10 -47 l-6
-36 -87 2 -86 2 80 5 c55 4 81 10 83 19 1 8 -2 11 -7 7 -6 -3 -10 9 -9 32 1
21 3 32 6 25 2 -6 10 -12 17 -12z m-4542 3 c-13 -2 -33 -2 -45 0 -13 2 -3 4
22 4 25 0 35 -2 23 -4z m1071 -10 c3 -8 4 -19 1 -23 -3 -5 0 -12 6 -16 8 -4 9
-3 5 4 -4 7 -5 12 -3 12 12 0 58 -84 53 -96 -3 -7 -1 -13 5 -11 6 1 25 -22 42
-52 17 -31 25 -51 16 -47 -7 4 -4 -1 7 -11 20 -16 48 -63 141 -226 18 -32 28
-55 23 -52 -6 3 -7 -1 -4 -9 3 -9 13 -16 21 -16 11 0 13 7 8 28 -4 22 0 35 20
56 14 15 30 24 37 20 7 -4 8 -3 4 5 -4 6 -12 8 -18 5 -5 -4 -5 4 2 17 30 58
153 269 157 269 2 0 1 -5 -3 -12 -4 -7 -3 -8 5 -4 6 4 9 12 6 17 -8 12 65 140
76 134 5 -4 6 1 3 10 -6 14 11 16 155 15 l161 -2 -18 -31 c-16 -29 -17 -81
-17 -607 l0 -575 22 -42 23 -43 -112 0 c-61 0 -109 2 -106 5 3 3 49 6 103 6
91 0 96 1 83 17 -25 28 -39 176 -38 392 1 113 1 215 1 228 -1 22 -4 23 -56 19
-30 -2 -58 -6 -61 -9 -2 -3 -5 -68 -5 -144 0 -77 -4 -146 -9 -154 -6 -10 -10
38 -10 142 l0 156 -51 4 c-28 1 -55 0 -61 -3 -6 -4 -12 -117 -14 -300 -2 -161
-8 -297 -13 -302 -5 -5 -7 -17 -4 -26 4 -12 3 -13 -5 -3 -7 11 -10 11 -15 -2
-5 -12 4 -16 41 -19 l47 -3 -52 -2 c-29 -1 -53 0 -53 2 0 2 9 23 20 47 18 41
20 67 20 365 0 290 2 323 17 335 15 12 16 12 8 -1 -5 -8 -10 -31 -11 -50 -2
-31 -1 -32 7 -12 5 13 7 28 3 33 -9 15 8 10 20 -6 9 -12 11 -7 13 27 2 23 8
45 15 50 12 7 9 9 -8 7 -12 -1 -24 25 -24 54 0 20 -5 27 -20 27 -11 0 -20 4
-20 9 0 12 -51 31 -77 29 -39 -4 -22 -78 17 -78 33 0 56 -71 28 -84 -7 -3 -3
-3 9 0 21 5 21 1 -14 -63 -51 -94 -73 -130 -73 -117 0 5 7 19 15 30 17 22 20
38 5 29 -6 -3 -7 1 -4 9 4 12 0 16 -17 17 -13 0 -33 2 -43 4 -11 2 -28 -1 -39
-7 -14 -7 -18 -7 -12 2 5 9 -30 11 -144 8 -83 -2 -151 -6 -151 -9 0 -3 11 -18
25 -33 13 -14 21 -26 17 -26 -4 0 -1 -4 6 -9 12 -7 19 -27 21 -59 1 -7 5 -11
10 -7 5 3 12 1 15 -4 4 -5 -1 -8 -10 -7 -9 1 -29 25 -43 52 -59 109 -103 184
-113 190 -7 4 -9 -17 -8 -62 4 -93 2 -112 -9 -96 -4 7 -6 46 -3 85 4 66 -3 91
-11 38 -2 -12 -10 -27 -18 -32 -11 -7 -10 -9 6 -9 17 -1 17 -3 -5 -11 -13 -6
-36 -7 -50 -3 -15 4 -20 8 -11 11 11 5 11 7 0 14 -11 7 -12 12 -1 29 10 17 10
20 -3 20 -8 0 -15 -3 -15 -8 0 -4 -13 -13 -30 -20 -34 -15 -39 -29 -12 -35 10
-2 1 -7 -21 -12 -23 -4 -48 -3 -61 3 -27 12 -25 18 -35 -108 l-8 -95 0 109 c1
79 4 109 14 113 7 3 13 14 13 24 0 11 -5 16 -14 13 -11 -4 -14 35 -15 226 -2
156 -7 247 -16 283 -12 47 -12 50 2 32 14 -18 15 -18 9 -2 -3 11 -3 23 0 28 3
6 66 9 144 8 113 -1 140 -4 144 -16z m1333 -5 c-3 -8 -6 -5 -6 6 -1 11 2 17 5
13 3 -3 4 -12 1 -19z m40 -15 c-3 -10 -5 -4 -5 12 0 17 2 24 5 18 2 -7 2 -21
0 -30z m1205 31 c13 -12 -26 -82 -55 -99 -17 -10 -26 -20 -20 -22 9 -3 9 -12
2 -29 -11 -31 -11 -34 0 -34 10 0 32 56 25 63 -2 2 1 9 8 15 11 8 13 -94 15
-533 2 -549 3 -555 38 -638 7 -17 -4 -18 -189 -17 l-196 2 16 30 c9 17 22 50
29 72 7 23 13 33 14 24 1 -10 -8 -40 -19 -68 l-20 -50 168 0 c93 0 171 2 174
6 3 3 -2 26 -12 52 -18 47 -19 59 -25 457 -3 155 0 145 -42 146 -28 0 -33 2
-19 8 18 7 18 8 2 14 -10 4 -30 7 -44 8 -24 0 -25 1 -7 8 17 7 15 9 -15 14
-86 15 -100 20 -100 36 0 14 -2 14 -10 1 -9 -13 -11 -13 -19 0 -7 10 -11 0
-14 -35 -2 -28 -4 69 -5 215 -1 245 0 263 15 245 12 -16 14 -16 10 -3 -3 10
-2 20 3 23 6 4 10 -1 10 -10 0 -11 5 -15 15 -11 8 3 15 1 15 -4 0 -6 -6 -10
-12 -11 -10 0 -10 -2 0 -6 6 -2 12 -11 12 -19 0 -8 6 -14 14 -14 21 0 27 -28
8 -39 -16 -10 -16 -10 1 -11 20 0 23 -16 5 -24 -9 -3 -8 -8 5 -16 9 -6 15 -16
11 -21 -4 -6 13 -7 48 -3 63 8 65 9 48 29 -7 8 -10 22 -6 30 4 11 -2 15 -24
15 -44 0 -36 16 13 25 30 6 36 9 20 12 -24 4 -31 19 -13 25 5 2 -4 17 -20 35
-17 18 -30 37 -30 42 0 6 -17 11 -37 11 -28 0 -34 3 -23 10 13 9 13 10 0 10
-13 0 -13 2 0 9 8 6 17 8 21 5 4 -2 10 0 13 5 3 5 -7 8 -22 7 -15 -1 -40 1
-57 5 -16 4 38 7 121 8 83 0 153 -2 156 -5z m470 -23 c2 -17 1 -28 -4 -25 -8
5 -12 54 -4 54 2 0 6 -13 8 -29z m-4238 -60 c-7 -8 -11 4 -17 44 l-6 40 13
-40 c7 -22 12 -42 10 -44z m1543 42 c-3 -10 -5 -4 -5 12 0 17 2 24 5 18 2 -7
2 -21 0 -30z m2663 -10 c0 -22 4 -23 88 -25 l87 -2 -85 -5 c-52 -4 -87 -2 -91
4 -11 18 -20 82 -9 65 5 -8 10 -25 10 -37z m-1673 -15 c-3 -7 -5 -2 -5 12 0
14 2 19 5 13 2 -7 2 -19 0 -25z m911 1 c-3 -8 -7 -3 -11 10 -4 17 -3 21 5 13
5 -5 8 -16 6 -23z m76 9 c3 -13 2 -26 -3 -31 -11 -11 -34 20 -27 38 8 22 23
18 30 -7z m-3471 5 c-7 -2 -21 -2 -30 0 -10 3 -4 5 12 5 17 0 24 -2 18 -5z
m4577 -1 c0 -4 -21 -6 -47 -4 -83 5 -90 9 -20 11 37 0 67 -2 67 -7z m-1923
-34 c-3 -8 -6 -5 -6 6 -1 11 2 17 5 13 3 -3 4 -12 1 -19z m-2624 5 c-13 -2
-33 -2 -45 0 -13 2 -3 4 22 4 25 0 35 -2 23 -4z m54 1 c-3 -3 -12 -4 -19 -1
-8 3 -5 6 6 6 11 1 17 -2 13 -5z m2553 -3 c0 -5 -9 -7 -20 -4 -11 3 -20 7 -20
9 0 2 9 4 20 4 11 0 20 -4 20 -9z m93 -28 c-7 -2 -19 -2 -25 0 -7 3 -2 5 12 5
14 0 19 -2 13 -5z m-2722 -37 c0 -6 4 -2 9 9 6 15 9 6 9 -32 1 -40 5 -53 16
-53 9 0 12 -6 9 -17 -5 -16 -4 -17 8 -2 16 19 38 3 30 -21 -5 -16 -4 -15 18
14 8 11 10 17 3 13 -6 -4 -14 -3 -17 2 -3 5 39 9 97 9 56 0 92 -2 80 -5 -26
-5 -32 -25 -7 -21 10 2 19 -3 22 -11 3 -9 0 -11 -8 -6 -9 6 -11 4 -5 -5 6 -10
13 -7 27 11 11 13 16 18 12 10 -4 -9 -3 -12 4 -7 10 6 7 110 -4 128 -3 4 0 8
5 8 10 0 15 -14 12 -33 -1 -5 3 -6 9 -2 6 3 7 11 4 17 -4 6 -2 8 4 4 6 -3 13
-20 17 -36 4 -17 11 -30 15 -30 5 0 6 7 3 17 -5 11 -3 14 6 8 8 -4 16 -2 20 4
10 15 65 -193 57 -214 -4 -11 -2 -14 6 -9 7 5 9 0 6 -14 -4 -14 -2 -20 5 -15
6 4 8 -2 4 -18 -4 -13 -7 -37 -7 -52 0 -16 -4 -26 -10 -22 -16 10 -12 -5 11
-41 11 -19 18 -38 14 -44 -3 -5 2 -10 11 -10 28 0 12 -8 -28 -14 -20 -3 -39
-2 -43 3 -3 5 6 8 21 6 17 -1 22 1 15 8 -5 5 -7 16 -4 23 7 18 -5 18 -23 -1
-19 -19 -44 -20 -44 -2 0 8 -7 14 -17 14 -13 0 -11 -5 8 -21 17 -15 24 -31 23
-54 0 -18 7 -56 17 -85 9 -28 25 -88 34 -132 8 -44 18 -89 22 -100 3 -11 3
-17 -1 -14 -6 6 -41 126 -77 266 -21 82 -26 92 -43 87 -14 -5 -16 -3 -10 7 6
12 5 12 -8 1 -18 -14 -77 -13 -79 3 -1 5 -2 18 -2 28 0 12 -3 15 -9 9 -12 -12
9 -95 22 -87 5 3 7 -4 5 -15 -2 -11 1 -20 6 -20 6 0 9 -8 7 -17 -1 -10 1 -24
6 -31 4 -7 5 -19 2 -27 -4 -12 -32 -15 -141 -15 -83 0 -135 4 -135 10 0 6 5
10 12 10 6 0 9 3 5 6 -3 3 0 22 7 42 7 21 12 47 11 59 -1 12 2 20 7 17 4 -3 8
2 8 11 0 14 -7 15 -45 9 -49 -7 -54 -4 -28 17 11 9 14 10 9 2 -4 -9 -2 -11 7
-7 11 4 7 12 -14 34 -34 34 -37 50 -8 50 20 0 21 4 15 43 -7 41 -27 67 -53 67
-7 0 -13 -6 -13 -13 0 -7 -9 -13 -20 -14 -11 -1 -20 3 -20 8 0 6 5 7 10 4 6
-3 10 -2 10 4 0 5 -4 13 -10 16 -5 3 -10 1 -10 -4 0 -6 -7 -11 -15 -11 -8 0
-15 -8 -16 -17 0 -15 -2 -15 -8 2 -7 16 -9 13 -15 -19 -4 -21 -9 -36 -12 -33
-3 3 3 34 12 70 16 57 20 65 33 54 14 -11 14 -10 2 6 -12 15 -10 32 19 130
l33 113 33 -4 c19 -2 34 -9 35 -16z m92 17 c-7 -2 -19 -2 -25 0 -7 3 -2 5 12
5 14 0 19 -2 13 -5z m167 -23 c0 -22 -5 -30 -17 -30 -16 0 -16 2 -3 11 11 8
12 12 3 16 -18 7 -16 33 2 33 10 0 15 -10 15 -30z m2310 -4 c0 -36 -12 -66
-23 -59 -6 3 -7 1 -3 -5 4 -7 3 -12 -2 -12 -6 0 -12 7 -16 15 -3 8 -10 15 -16
15 -5 0 2 -13 17 -30 14 -16 35 -30 45 -30 11 0 17 -4 13 -10 -4 -6 -15 -6
-30 0 -14 5 -25 7 -25 4 0 -4 -7 -1 -14 6 -11 9 -19 9 -33 0 -15 -10 -15 -11
-1 -6 9 2 22 -2 29 -10 10 -12 9 -13 -7 -8 -13 4 -9 -3 11 -20 17 -14 35 -24
40 -23 13 5 13 30 0 39 -5 5 5 5 23 2 27 -6 36 -3 48 15 9 12 20 19 25 16 5
-4 9 -1 9 4 0 6 10 12 23 13 12 1 -3 4 -33 8 -40 5 -23 7 63 6 64 -1 117 -5
116 -10 0 -5 5 -12 11 -16 9 -5 9 -9 1 -14 -6 -4 -11 -2 -11 3 0 6 -5 11 -10
11 -6 0 -3 -11 7 -24 10 -13 22 -22 27 -19 4 3 2 9 -5 14 -11 7 -10 9 4 9 9 0
17 -4 17 -9 0 -5 10 -7 23 -5 16 3 14 1 -8 -10 l-30 -15 41 -1 c35 0 42 4 51
28 l11 27 -3 -32 c-2 -23 2 -33 11 -33 8 0 14 7 14 15 0 8 -3 15 -7 15 -5 0
-9 19 -10 43 -1 27 16 -24 48 -138 27 -99 46 -188 43 -199 -4 -12 -2 -16 5
-12 6 4 11 3 11 -3 0 -6 -12 -13 -27 -17 -16 -3 -33 -7 -39 -9 -6 -2 -17 1
-25 7 -11 8 -11 9 2 5 9 -3 22 -1 30 4 10 6 10 9 2 9 -7 0 -13 5 -13 11 0 6 9
9 19 6 23 -6 31 9 24 46 -6 33 -22 45 -34 26 -7 -11 -9 -10 -9 4 0 9 -5 17
-11 17 -5 0 -2 -14 8 -30 15 -26 19 -28 24 -13 5 14 7 12 11 -10 4 -22 1 -27
-13 -27 -11 0 -19 5 -19 11 0 6 -9 3 -22 -5 -13 -9 -31 -13 -45 -10 -18 5 -22
3 -17 -10 3 -8 15 -18 25 -21 14 -5 17 -10 11 -18 -10 -12 -9 -41 4 -87 4 -17
3 -22 -3 -15 -6 6 -16 32 -23 58 -13 47 -14 48 -44 44 -17 -3 -40 -2 -51 3
-13 6 -15 9 -5 9 8 1 21 11 29 22 11 18 11 23 0 30 -14 8 -31 -9 -23 -22 2 -4
0 -10 -6 -14 -8 -5 -15 22 -11 47 0 4 -6 5 -14 2 -18 -7 -20 7 -2 25 6 8 0 6
-15 -3 l-26 -17 -21 89 c-12 49 -21 99 -21 111 0 51 -18 12 -49 -106 -18 -71
-37 -139 -42 -153 -8 -23 -8 -22 -5 8 4 30 -2 37 -27 33 -5 -1 -6 3 -2 9 13
21 24 70 14 65 -5 -4 -9 -13 -9 -21 0 -26 -44 -12 -54 17 -8 22 -4 31 23 60
18 18 28 35 22 37 -6 2 -11 8 -11 14 0 6 6 8 14 5 8 -3 17 1 20 9 5 12 -1 14
-27 11 -17 -2 -46 0 -64 4 -23 5 -33 3 -37 -8 -3 -8 -11 -11 -17 -8 -7 5 -2
16 13 33 13 14 17 22 11 18 -8 -4 -13 -1 -13 8 0 8 -4 17 -8 20 -5 3 -6 -8 -4
-25 3 -21 0 -29 -11 -29 -9 0 -17 8 -19 18 -3 14 -5 13 -10 -6 -3 -12 -2 -20
3 -16 8 5 13 -10 10 -29 -1 -5 3 -6 9 -2 5 3 10 1 10 -4 0 -6 -9 -11 -21 -11
-13 0 -18 4 -14 13 4 6 -1 3 -11 -8 -10 -12 -15 -14 -12 -5 3 8 13 46 23 83
10 37 21 64 24 58 3 -5 7 10 7 32 1 23 6 53 12 67 9 23 14 25 56 22 39 -3 46
-7 46 -26z m60 10 c10 -13 10 -17 3 -12 -8 4 -13 2 -13 -4 0 -8 29 -11 90 -9
50 1 93 -1 97 -5 3 -3 -39 -6 -95 -6 l-102 0 0 32 c0 17 1 29 3 27 1 -2 9 -13
17 -23z m166 17 c-14 -4 -16 -7 -6 -13 9 -6 2 -11 -24 -15 -20 -4 -40 -5 -43
-1 -4 3 6 6 20 6 17 0 27 5 27 15 0 9 9 15 23 14 19 -1 19 -2 3 -6z m61 -75
c-2 -18 -4 -6 -4 27 0 33 2 48 4 33 2 -15 2 -42 0 -60z m1291 57 c-4 -20 -3
-23 8 -14 11 9 14 8 14 -2 1 -10 4 -9 11 3 5 10 16 15 24 12 10 -4 15 0 15 11
0 9 5 13 11 9 7 -4 9 -23 5 -50 l-5 -43 55 -7 c30 -3 79 -4 109 -2 30 3 55 1
55 -4 0 -4 -20 -8 -45 -8 -25 0 -45 -4 -45 -10 0 -5 11 -10 24 -10 13 0 29 -7
36 -15 14 -17 45 -21 35 -5 -3 6 2 10 13 10 29 0 85 22 74 29 -6 3 -7 23 -3
46 6 33 8 36 14 19 4 -12 5 -30 1 -40 -4 -13 -3 -15 3 -6 11 14 57 26 48 11
-4 -5 -1 -9 4 -9 14 0 14 31 1 66 -6 15 -8 29 -6 31 3 3 9 -12 15 -34 6 -21
23 -80 37 -131 19 -71 23 -96 14 -107 -8 -10 -8 -15 1 -21 8 -4 9 -3 5 4 -4 7
-3 12 2 12 5 0 17 -29 26 -65 13 -52 14 -68 4 -79 -13 -14 -48 -10 -48 6 0 5
4 7 9 3 5 -3 12 -1 16 5 4 6 11 8 16 4 6 -3 7 5 3 23 -9 37 -14 42 -14 12 0
-19 -2 -21 -10 -9 -8 12 -10 12 -10 -5 0 -17 -2 -17 -10 -5 -8 13 -10 12 -11
-5 -1 -11 -2 -25 -2 -31 0 -6 -8 -9 -18 -7 -11 3 -19 11 -19 17 0 8 -11 11
-30 8 -36 -5 -39 -18 -6 -26 33 -8 42 -34 10 -28 -13 2 -27 8 -30 13 -3 5 -14
9 -26 9 -15 0 -18 -4 -14 -17 4 -9 1 -20 -6 -25 -9 -5 -4 -8 15 -8 15 0 27 -3
27 -7 0 -5 -18 -8 -40 -8 -36 0 -39 2 -33 23 3 12 1 22 -6 22 -6 0 -8 6 -5 13
3 8 -3 20 -12 28 -16 13 -17 12 -10 -11 15 -54 16 -84 1 -40 -8 25 -13 50 -10
57 2 7 0 15 -4 17 -5 3 -18 49 -31 102 -12 52 -25 93 -28 89 -4 -3 -12 -34
-19 -68 -7 -34 -17 -63 -23 -65 -6 -2 -8 -7 -5 -12 3 -4 -11 -71 -30 -149 -19
-78 -35 -142 -35 -143 0 -2 52 -2 115 0 63 2 115 4 115 6 0 1 -7 23 -16 49 -9
26 -13 52 -11 59 3 8 6 6 6 -4 1 -10 12 -42 26 -72 14 -30 25 -58 25 -61 0 -4
-35 -5 -77 -1 -43 3 -109 5 -148 5 -44 1 -65 4 -57 9 8 5 13 11 11 13 -1 2 3
21 10 42 7 20 11 43 8 50 -2 6 0 20 5 31 7 13 7 16 -2 11 -6 -4 -27 -4 -46 -1
-30 6 -33 9 -24 26 9 17 7 20 -15 20 -26 0 -36 25 -12 33 6 2 8 8 4 13 -4 5
-11 4 -15 -2 -4 -6 -16 -14 -27 -18 -16 -6 -17 -9 -5 -16 20 -12 6 -23 -20
-15 -12 4 -19 12 -17 19 3 7 -1 13 -9 13 -9 0 -12 -7 -8 -19 3 -10 1 -25 -5
-32 -8 -9 -7 -13 4 -13 8 0 12 4 9 9 -3 4 0 8 5 8 6 0 11 -4 11 -9 0 -5 8 -12
18 -14 9 -3 -6 -5 -34 -4 -34 1 -50 6 -47 13 2 7 0 15 -6 19 -6 3 -11 -1 -11
-11 0 -10 -2 -15 -5 -12 -3 3 2 36 11 73 12 47 20 63 26 53 7 -9 8 -7 3 7 -8
25 45 216 58 208 6 -3 7 -1 3 6 -11 17 3 73 16 65 7 -4 8 -2 4 4 -7 12 2 82
11 82 3 0 3 -11 1 -25z m170 13 c-2 -9 16 -14 60 -16 51 -2 62 0 62 13 0 8 7
15 15 15 10 0 15 -10 15 -30 l0 -30 -95 0 -95 0 0 30 c0 23 4 30 20 30 11 0
19 -6 18 -12z m202 -93 c-8 -10 -7 -14 2 -18 8 -4 7 -6 -4 -6 -19 -1 -24 14
-8 24 6 3 11 30 12 58 l2 52 3 -48 c2 -27 -1 -55 -7 -62z m-4377 52 l62 -3
-67 -2 c-65 -2 -68 -1 -67 21 1 16 3 17 6 5 3 -13 18 -18 66 -21z m2751 12
c-5 9 -3 12 4 7 7 -4 12 -14 12 -22 0 -12 -4 -12 -20 -4 -11 6 -20 18 -20 27
0 14 2 14 16 -3 8 -10 12 -13 8 -5z m-2686 4 c-10 -2 -26 -2 -35 0 -10 3 -2 5
17 5 19 0 27 -2 18 -5z m2366 -85 c-3 -4 -9 -8 -15 -8 -5 0 -9 4 -9 8 0 5 7 9
15 9 8 0 12 -4 9 -9z m-83 -151 c-16 -16 -26 0 -10 19 9 11 15 12 17 4 2 -6
-1 -17 -7 -23z m69 2 c0 -10 -4 -19 -9 -19 -10 0 -21 36 -14 44 10 10 23 -5
23 -25z m-43 -14 c-4 -8 -14 -15 -23 -15 -16 0 -16 2 1 20 20 22 31 20 22 -5z
m-130 -84 c-1 -21 -5 -37 -9 -35 -3 2 -9 -10 -13 -27 -4 -17 -9 -28 -11 -26
-5 5 27 127 32 127 2 0 3 -18 1 -39z m-2452 19 c3 -5 2 -10 -4 -10 -5 0 -13 5
-16 10 -3 6 -2 10 4 10 5 0 13 -4 16 -10z m574 -68 c5 -23 5 -40 1 -37 -4 2
-10 19 -13 37 -3 18 -8 42 -12 53 -5 16 -5 17 4 4 6 -9 14 -34 20 -57z m-692
-24 c-3 -8 -6 -5 -6 6 -1 11 2 17 5 13 3 -3 4 -12 1 -19z m2960 -25 c-3 -10
-5 -4 -5 12 0 17 2 24 5 18 2 -7 2 -21 0 -30z m1936 11 c14 14 17 9 35 -52 12
-37 23 -80 26 -97 6 -30 6 -30 -7 3 -7 18 -16 30 -21 25 -5 -4 -6 -1 -4 7 6
19 -18 70 -34 70 -14 0 -37 31 -37 50 0 12 2 11 13 -3 12 -16 15 -16 29 -3z
m-1713 2 c0 -3 -4 -8 -10 -11 -5 -3 -10 -1 -10 4 0 6 5 11 10 11 6 0 10 -2 10
-4z m-3194 -60 c-2 -30 -8 -61 -12 -68 -5 -7 -9 -20 -11 -28 -8 -56 -15 -80
-23 -75 -4 3 -6 -5 -2 -17 4 -16 2 -19 -8 -13 -10 6 -12 4 -7 -7 3 -9 3 -19
-1 -23 -4 -3 -7 -21 -8 -38 -1 -17 -7 -33 -13 -35 -6 -2 -9 -8 -5 -13 3 -5 0
-9 -7 -9 -6 0 -9 8 -7 18 55 197 102 362 105 362 2 0 1 -24 -1 -54z m2794 44
c0 -5 -5 -10 -11 -10 -5 0 -7 5 -4 10 3 6 8 10 11 10 2 0 4 -4 4 -10z m-236
-44 c-3 -9 -11 -13 -17 -9 -6 4 -8 0 -4 -11 4 -10 3 -15 -3 -11 -9 5 -14 -16
-13 -52 1 -7 -3 -13 -8 -13 -5 0 -9 -7 -9 -17 0 -9 -3 -14 -6 -11 -3 3 5 42
17 86 18 68 24 79 35 67 8 -7 11 -21 8 -29z m-2429 -25 c-4 -17 -10 -31 -15
-31 -4 0 -4 16 0 34 4 19 7 37 5 39 -1 3 2 1 8 -3 5 -5 6 -22 2 -39z m2658 42
c-7 -2 -19 -2 -25 0 -7 3 -2 5 12 5 14 0 19 -2 13 -5z m209 -2 c6 9 7 6 3 -12
-4 -14 1 -45 10 -70 9 -24 19 -54 22 -67 l6 -23 -142 2 c-77 2 -141 6 -141 11
0 4 5 8 10 8 6 0 11 8 11 18 1 15 2 15 6 0 4 -14 20 -16 119 -16 91 0 114 3
110 14 -12 32 -40 161 -29 135 5 -11 7 -11 15 0z m739 0 c6 -1 0 -154 -7 -160
-2 -2 -4 31 -4 75 l0 79 -35 -1 c-19 -1 -37 2 -40 6 -4 7 43 7 86 1z m615 -6
c-3 -20 -16 -31 -16 -13 0 13 8 28 16 28 1 0 1 -7 0 -15z m464 5 c12 -7 12
-10 1 -10 -7 0 -11 -6 -7 -15 3 -8 1 -15 -3 -15 -14 0 -22 30 -8 31 7 1 1 5
-13 9 -21 7 -21 8 -5 9 11 0 27 -4 35 -9z m-4083 -32 c-3 -8 -6 -5 -6 6 -1 11
2 17 5 13 3 -3 4 -12 1 -19z m460 0 c-3 -8 -6 -5 -6 6 -1 11 2 17 5 13 3 -3 4
-12 1 -19z m1474 -21 c-13 -13 -15 1 -4 30 7 17 8 17 11 -1 2 -10 -1 -23 -7
-29z m138 -11 c-6 -26 -14 -44 -17 -42 -2 3 1 26 8 51 17 59 24 52 9 -9z m486
-7 c8 -29 12 -55 10 -58 -3 -2 -5 1 -5 8 0 7 -5 9 -12 5 -7 -4 -8 -3 -4 4 9
16 -4 83 -15 76 -5 -3 -6 2 -3 11 9 22 13 15 29 -46z m900 0 c-8 -19 -13 -25
-9 -14 3 11 8 34 12 50 3 17 8 23 10 14 1 -9 -4 -32 -13 -50z m-2591 -21 c17
-29 18 -31 2 -19 -9 8 -24 28 -33 45 -22 42 5 20 31 -26z m2003 -47 c-3 -116
-16 -108 -16 10 0 49 4 87 9 84 5 -3 8 -45 7 -94z m-2823 -47 c20 -74 33 -140
29 -150 -4 -11 -3 -15 4 -11 14 9 27 -43 14 -56 -7 -7 -8 -2 -4 13 4 15 2 21
-5 16 -14 -8 -25 28 -17 55 5 16 4 19 -5 14 -9 -5 -10 -1 -5 15 5 15 4 20 -4
16 -11 -7 -16 17 -13 57 1 11 -2 16 -10 11 -8 -5 -9 0 -6 14 4 14 2 20 -5 15
-6 -4 -8 2 -5 15 4 12 3 22 -1 22 -3 0 -7 21 -8 46 0 25 1 44 2 42 2 -2 19
-62 39 -134z m3545 84 c-7 -23 -16 -47 -21 -53 -5 -5 -2 13 7 40 8 28 15 54
15 59 0 5 3 7 6 4 3 -3 0 -26 -7 -50z m-1673 -26 c-11 -10 -14 3 -8 33 l7 30
3 -28 c2 -16 1 -31 -2 -35z m-997 4 c-13 -22 -25 -34 -31 -28 -5 5 3 21 19 39
36 39 40 35 12 -11z m3174 24 c3 -11 1 -18 -4 -14 -5 3 -9 12 -9 20 0 20 7 17
13 -6z m-4713 -11 c0 -11 -4 -18 -10 -14 -5 3 -7 12 -3 20 7 21 13 19 13 -6z
m1217 -1 c-3 -8 -6 -5 -6 6 -1 11 2 17 5 13 3 -3 4 -12 1 -19z m439 -53 c-15
-25 -28 -45 -29 -45 -2 0 -3 9 -3 19 0 11 5 17 10 14 5 -4 7 1 3 11 -4 10 -3
15 3 11 5 -3 15 5 22 19 6 15 13 24 16 21 2 -2 -8 -25 -22 -50z m2394 8 c-11
-17 -11 -17 -6 0 3 10 7 26 7 35 1 15 2 15 6 0 2 -10 -1 -25 -7 -35z m-1534
-15 c-10 -60 -24 -105 -25 -81 -1 24 20 113 27 113 2 0 1 -15 -2 -32z m693
-19 c11 -40 11 -53 1 -62 -10 -9 -11 -7 -6 9 3 11 0 39 -8 62 -8 23 -12 42 -7
42 4 0 13 -23 20 -51z m1721 -184 c29 -104 65 -213 79 -241 l27 -50 -35 -1
c-27 -1 -30 0 -14 5 23 7 23 7 4 36 -11 16 -17 36 -13 44 4 11 1 13 -7 7 -10
-6 -11 -2 -6 15 5 16 4 20 -5 15 -9 -5 -10 -2 -5 14 3 11 2 21 -3 21 -6 0 -8
10 -5 23 3 16 2 18 -5 8 -7 -10 -12 -2 -18 30 -5 24 -9 49 -9 54 0 6 -4 16 -9
23 -4 7 -5 20 -2 28 4 10 2 12 -6 8 -7 -5 -9 0 -6 14 4 12 2 22 -4 22 -6 0 -7
11 -4 26 4 15 3 23 -3 20 -10 -7 -24 40 -16 54 4 6 2 10 -3 10 -5 0 -7 12 -4
28 l5 27 8 -25 c4 -14 31 -110 59 -215z m-2545 215 c3 -5 1 -10 -4 -10 -6 0
-11 5 -11 10 0 6 2 10 4 10 3 0 8 -4 11 -10z m1232 -167 c-2 -32 -3 -8 -3 52
0 61 1 87 3 58 2 -29 2 -78 0 -110z m-1238 104 c1 -5 -4 -5 -11 -1 -8 5 -9 0
-5 -16 4 -15 2 -19 -4 -13 -5 5 -6 25 -2 43 5 29 8 31 14 15 4 -11 8 -24 8
-28z m1671 32 c0 8 2 12 4 10 8 -7 -24 -113 -35 -120 -7 -4 -10 -13 -7 -21 3
-7 -1 -19 -8 -26 -17 -16 -17 -15 2 63 9 36 21 62 26 59 5 -3 6 6 3 23 -5 21
-4 24 4 13 9 -12 11 -13 11 -1z m-971 -61 c1 -10 -3 -18 -9 -18 -5 0 -10 17
-9 38 0 30 2 33 9 17 5 -11 9 -28 9 -37z m1098 30 c-3 -8 -6 -5 -6 6 -1 11 2
17 5 13 3 -3 4 -12 1 -19z m-2572 -28 c-17 -34 -22 -37 -22 -15 0 8 4 15 9 15
5 0 7 4 4 9 -5 8 3 15 22 20 1 1 -4 -12 -13 -29z m-1635 -4 c8 -11 10 -17 4
-13 -12 7 -27 -23 -40 -76 -3 -15 -9 -26 -12 -23 -2 3 4 34 14 70 10 36 19 64
19 63 0 -1 7 -11 15 -21z m4210 -1 c10 -12 10 -15 -4 -15 -9 0 -16 7 -16 15 0
8 2 15 4 15 2 0 9 -7 16 -15z m-698 -147 c-10 -10 -16 128 -5 145 4 7 9 -21
11 -62 2 -41 -1 -78 -6 -83z m-3079 135 c-34 -2 -93 -2 -130 0 -37 2 -9 3 62
3 72 0 102 -1 68 -3z m1953 -18 c1 -8 -2 -15 -8 -15 -6 0 -7 -8 -3 -17 4 -12
3 -15 -4 -8 -5 6 -7 23 -4 38 6 28 15 29 19 2z m502 18 c-54 -2 -142 -2 -195
0 -54 1 -10 3 97 3 107 0 151 -2 98 -3z m392 -128 c-9 -18 -10 -18 -4 4 4 16
3 21 -5 17 -7 -5 -9 -1 -5 8 3 9 2 16 -4 16 -13 0 -21 46 -14 73 5 17 10 8 24
-38 14 -45 16 -65 8 -80z m1328 128 c-64 -2 -172 -2 -240 0 -68 1 -15 3 117 3
132 0 187 -2 123 -3z m-3062 -73 c8 0 14 5 14 11 0 5 5 7 10 4 9 -5 14 6 12
26 -1 3 5 6 12 6 9 0 2 -19 -17 -53 l-31 -53 -19 32 c-10 18 -28 48 -39 67
l-21 35 32 -37 c18 -21 39 -38 47 -38z m1584 9 c17 -68 9 -71 -11 -3 -9 30
-13 54 -9 54 5 0 13 -23 20 -51z m1056 15 c-4 -14 -9 -24 -12 -21 -3 2 -2 17
2 31 3 15 9 25 11 22 3 -3 2 -17 -1 -32z m623 -44 c1 -26 -16 10 -23 50 l-6
35 14 -35 c8 -19 15 -42 15 -50z m-2305 16 c-3 -15 -8 -25 -11 -23 -2 3 -1 17
3 31 3 15 8 25 11 23 2 -3 1 -17 -3 -31z m-140 -1 c3 -8 1 -15 -4 -15 -6 0
-10 7 -10 15 0 8 2 15 4 15 2 0 6 -7 10 -15z m-2557 -27 c-3 -8 -6 -5 -6 6 -1
11 2 17 5 13 3 -3 4 -12 1 -19z m654 -22 c1 -12 0 -29 -1 -40 -1 -12 2 -16 11
-11 9 6 11 2 7 -13 -4 -12 -3 -22 2 -22 4 0 5 -12 2 -26 -3 -15 -1 -25 4 -22
5 3 10 -18 12 -47 1 -33 -2 -56 -9 -61 -9 -5 -10 1 -6 23 3 17 -4 68 -18 123
-13 52 -22 97 -20 100 3 4 -15 4 -38 -1 -55 -11 -220 -10 -275 0 -41 8 -43 7
-38 -12 3 -14 2 -17 -6 -9 -6 6 -8 18 -5 26 5 13 34 15 192 14 180 -1 185 -2
186 -22z m1891 -5 c-8 -4 -10 -15 -6 -27 5 -14 4 -16 -5 -8 -7 7 -9 22 -5 38
5 20 9 25 18 16 8 -8 7 -13 -2 -19z m648 14 c7 -8 9 -15 5 -15 -4 0 -3 -6 2
-12 18 -24 32 -103 29 -173 -2 -42 2 -73 8 -77 6 -4 1 -8 -13 -8 -18 0 -22 4
-16 18 15 39 16 81 2 128 -8 28 -13 64 -10 80 3 22 2 26 -6 14 -9 -12 -11 -11
-11 8 0 12 -6 22 -12 23 -7 0 -85 0 -173 1 -139 0 -160 -2 -163 -16 -2 -9 -8
-13 -14 -10 -6 4 -8 -2 -3 -17 5 -19 4 -21 -5 -9 -9 12 -10 10 -6 -12 4 -16 3
-40 0 -55 -7 -25 -8 -26 -15 -6 -4 12 -1 48 8 87 l16 66 182 0 c150 0 185 -3
195 -15z m1017 -20 c-16 -17 -17 -14 -10 14 4 15 8 19 13 10 5 -6 3 -18 -3
-24z m658 -1 c8 -19 11 -42 8 -51 -5 -12 -3 -14 7 -8 10 6 11 2 6 -19 -5 -19
-3 -26 4 -21 7 4 9 -3 5 -22 -5 -22 -4 -25 5 -13 9 12 11 5 7 -30 -3 -25 -8
-52 -11 -61 -10 -22 33 -29 153 -24 52 2 103 -1 115 -5 13 -5 -39 -9 -135 -9
l-157 -1 11 41 c8 35 6 59 -13 138 l-24 96 -170 0 -170 0 -20 -75 c-21 -81
-25 -140 -13 -180 l8 -25 -163 4 c-132 3 -154 5 -118 13 25 5 91 6 146 3 106
-7 123 -2 109 33 -10 24 -12 81 -2 75 4 -2 5 8 2 24 -4 24 -4 25 5 8 8 -16 9
-12 5 20 -3 29 -2 36 6 25 7 -11 8 -6 4 19 -6 26 -4 32 5 26 9 -5 11 -4 6 4
-4 6 -4 20 -1 31 6 18 16 19 186 19 l180 -1 14 -34z m-4881 -16 c-4 -18 -6
-46 -5 -61 1 -19 -2 -26 -10 -21 -8 4 -9 0 -4 -15 4 -13 2 -21 -5 -21 -6 0 -8
-4 -5 -10 8 -13 -22 -67 -54 -97 -34 -33 -35 -28 -2 17 17 23 40 80 56 140 16
55 30 100 33 100 2 0 0 -15 -4 -32z m1461 -59 c3 -46 8 -94 11 -106 2 -12 -1
-25 -8 -29 -7 -4 -8 -3 -4 4 4 7 3 12 -3 12 -6 0 -8 12 -5 29 3 16 2 31 -2 34
-5 3 -7 37 -6 77 2 39 5 70 8 68 2 -3 6 -42 9 -89z m1077 8 c-7 -8 -9 -17 -5
-20 3 -4 1 -7 -5 -7 -7 0 -12 7 -12 15 0 8 4 15 10 15 5 0 7 8 3 18 -5 14 -3
15 7 5 10 -9 10 -15 2 -26z m-2252 -14 c0 -7 -4 -13 -10 -13 -5 0 -10 12 -10
28 0 21 2 24 10 12 5 -8 10 -21 10 -27z m754 -143 l26 -40 -122 0 c-67 0 -119
2 -116 5 3 3 54 6 114 6 105 0 108 1 88 18 -31 25 -56 78 -48 103 3 12 2 18
-3 15 -6 -4 -8 5 -6 21 4 22 2 24 -7 12 -10 -13 -11 -12 -6 3 3 10 6 24 7 30
0 7 11 -21 24 -61 13 -40 35 -91 49 -112z m2509 72 c23 -69 23 -72 4 -54 -11
11 -19 32 -19 46 0 14 -3 24 -7 22 -3 -3 -7 14 -7 37 -1 23 0 38 2 32 2 -5 14
-43 27 -83z m644 66 c-3 -8 -6 -5 -6 6 -1 11 2 17 5 13 3 -3 4 -12 1 -19z
m-3923 -61 c-3 -23 -2 -59 4 -80 l10 -37 -85 0 c-97 0 -106 8 -18 15 32 3 60
7 62 9 3 2 4 29 4 60 0 31 5 56 10 56 6 0 7 5 4 10 -3 6 -2 10 4 10 7 0 8 -16
5 -43z m2244 -11 c-6 -14 -15 -26 -20 -26 -4 0 -8 -8 -8 -19 0 -10 -8 -25 -17
-32 -14 -12 -16 -12 -10 1 3 8 16 40 29 72 15 37 26 52 31 43 4 -8 2 -25 -5
-39z m1653 -21 c-13 -42 -16 -64 -9 -72 8 -10 3 -13 -20 -13 l-31 0 35 66 c19
36 34 73 35 82 0 9 2 13 5 7 2 -5 -5 -37 -15 -70z m-3016 -32 c-9 -15 -13 -19
-10 -8 4 11 10 40 14 65 l6 45 3 -37 c2 -21 -4 -49 -13 -65z m1655 39 c0 -15
4 -41 9 -58 7 -26 6 -30 -13 -32 -14 -1 -17 1 -8 7 10 6 11 20 4 60 -5 28 -5
51 -1 51 5 0 9 -12 9 -28z m-1307 -76 c4 -11 -13 -13 -91 -13 l-97 1 88 3 c48
2 87 8 87 13 0 14 7 12 13 -4z m-803 -6 c0 -5 -4 -10 -10 -10 -5 0 -10 5 -10
10 0 6 5 10 10 10 6 0 10 -4 10 -10z m108 -7 c-10 -2 -28 -2 -40 0 -13 2 -5 4
17 4 22 1 32 -1 23 -4z m1949 1 c-3 -3 -12 -4 -19 -1 -8 3 -5 6 6 6 11 1 17
-2 13 -5z m726 -1 c-34 -2 -93 -2 -130 0 -37 2 -9 3 62 3 72 0 102 -1 68 -3z
m115 0 c-10 -2 -26 -2 -35 0 -10 3 -2 5 17 5 19 0 27 -2 18 -5z m-2856 -345
c-2 -5 -46 -8 -98 -8 l-94 0 0 85 0 85 75 0 75 0 0 -60 0 -60 -50 0 -50 0 0
36 0 37 40 -6 c30 -4 40 -2 40 9 0 10 -15 14 -55 14 l-56 0 3 -57 3 -58 78 -3
77 -3 2 93 2 93 5 -95 c3 -52 5 -98 3 -102z m3208 86 l0 -94 -100 0 -100 0 0
85 0 85 75 0 75 0 0 -60 0 -60 -50 0 -50 0 0 35 c0 32 2 35 29 35 36 0 50 -17
19 -22 -30 -4 -25 -22 7 -26 23 -3 25 0 25 32 l0 36 -55 0 -56 0 3 -57 3 -58
78 -3 77 -3 0 91 c0 58 4 89 10 85 6 -3 10 -48 10 -101z m460 6 l0 -100 -100
0 -100 0 0 85 0 85 75 0 75 0 0 -61 0 -60 -51 3 c-50 3 -52 4 -55 36 -4 31 -2
32 31 32 41 0 47 -15 10 -24 -34 -9 -22 -26 16 -26 28 0 30 2 27 35 -2 20 -6
35 -10 35 -5 0 -28 0 -53 0 l-45 0 0 -60 0 -60 80 0 80 0 0 90 c0 53 4 90 10
90 6 0 10 -40 10 -100z m-4120 -5 l0 -95 -100 0 -100 0 0 85 0 85 75 0 75 0 0
-60 0 -60 -50 0 -50 0 0 35 c0 33 2 35 35 35 39 0 48 -17 13 -22 -30 -4 -25
-22 7 -26 23 -3 25 0 25 32 l0 36 -55 0 -55 0 0 -60 0 -60 80 0 80 0 0 85 c0
50 4 85 10 85 6 0 10 -38 10 -95z m1830 0 l0 -95 -99 0 -99 0 -4 81 c-2 44 -1
83 1 85 2 2 37 4 78 4 l73 0 0 -60 0 -60 -50 0 -50 0 0 35 c0 32 2 35 30 35
17 0 30 -4 30 -10 0 -5 -9 -10 -20 -10 -11 0 -20 -7 -20 -15 0 -10 10 -15 30
-15 28 0 30 3 30 35 l0 35 -55 0 -55 0 0 -60 0 -60 80 0 80 0 0 85 c0 50 4 85
10 85 6 0 10 -38 10 -95z m460 0 c0 -52 -3 -95 -7 -95 -14 0 -39 20 -25 20 9
0 12 24 12 85 0 50 4 85 10 85 6 0 10 -38 10 -95z m452 -23 c2 -36 -1 -62 -7
-62 -6 0 -8 34 -6 92 5 93 8 86 13 -30z m468 23 l0 -95 -100 0 -100 0 0 48 c0
26 -3 64 -6 85 l-7 37 82 0 81 0 0 -60 0 -60 -56 0 -55 0 3 33 c3 28 7 32 36
35 18 2 32 -1 32 -7 0 -6 -9 -11 -20 -11 -11 0 -20 -7 -20 -15 0 -9 9 -15 25
-15 22 0 25 4 25 34 0 33 -1 34 -47 38 -27 3 -50 4 -53 2 -3 -1 -3 -29 -2 -63
l4 -61 73 0 73 0 7 65 c3 35 4 69 0 75 -7 12 2 30 16 30 5 0 9 -42 9 -95z
m1368 11 c0 -45 -3 -88 -7 -95 -5 -8 -37 -11 -102 -9 l-94 3 1 80 0 80 77 3
77 3 0 -61 0 -60 -56 0 -55 0 3 33 c2 25 8 33 27 35 34 5 49 -14 17 -22 -38
-9 -32 -26 9 -26 33 0 35 2 35 35 l0 35 -55 0 -55 0 0 -60 0 -60 80 0 80 0 0
85 c0 47 4 85 9 85 5 0 9 -38 9 -84z m-3708 4 l0 -60 -55 0 -55 0 0 35 c0 32
2 35 29 35 36 0 50 -17 19 -22 -34 -5 -28 -23 10 -26 26 -3 32 0 32 17 0 42
-10 51 -61 51 l-49 0 0 -60 0 -60 81 0 c51 0 78 -4 74 -10 -3 -5 -46 -10 -96
-10 l-89 0 0 78 c0 43 3 82 7 85 3 4 39 7 80 7 l73 0 0 -60z m458 -2 l3 -58
-56 0 -55 0 0 35 c0 32 2 35 29 35 38 0 48 -16 16 -24 -35 -9 -31 -26 5 -26
28 0 30 3 30 35 l0 35 -55 0 -56 0 3 -57 3 -58 82 -3 82 -3 4 58 3 58 2 -67 2
-68 -100 0 -100 0 0 78 c0 43 3 82 7 86 4 4 39 5 78 4 l70 -3 3 -57z m912 -3
l0 -55 -50 0 -50 0 0 35 c0 32 2 35 30 35 17 0 30 -4 30 -10 0 -5 -11 -10 -25
-10 -16 0 -25 -6 -25 -15 0 -10 11 -15 35 -15 34 0 35 1 35 41 l0 40 -60 -2
c-33 -1 -63 1 -67 4 -3 4 28 7 70 7 l77 0 0 -55z m460 0 l0 -55 -50 0 c-43 0
-50 3 -50 19 0 11 -3 26 -6 35 -5 12 1 16 24 16 36 0 52 -17 20 -22 -38 -5
-33 -28 6 -28 35 0 36 1 36 40 l0 40 -59 0 c-56 0 -59 -1 -54 -22 4 -19 3 -20
-6 -8 -24 33 -13 40 64 40 l75 0 0 -55z m-1793 8 c-3 -10 -5 -4 -5 12 0 17 2
24 5 18 2 -7 2 -21 0 -30z m1660 -60 c-3 -10 -5 -2 -5 17 0 19 2 27 5 18 2
-10 2 -26 0 -35z m-354 -40 c-7 -2 -19 -2 -25 0 -7 3 -2 5 12 5 14 0 19 -2 13
-5z m464 1 c-3 -3 -12 -4 -19 -1 -8 3 -5 6 6 6 11 1 17 -2 13 -5z m-545 -1179
c5 -24 3 -25 -38 -25 -40 0 -44 2 -44 25 0 22 4 25 39 25 33 0 39 -3 43 -25z
m268 0 l0 -25 -100 0 -100 0 0 25 0 25 100 0 100 0 0 -25z m148 0 c2 -23 -1
-25 -43 -25 -41 0 -45 2 -45 25 0 23 4 25 43 25 38 0 43 -3 45 -25z m-848
-190 c-14 -17 -30 -20 -30 -4 0 5 5 7 10 4 6 -3 13 1 16 10 4 9 9 14 12 11 3
-3 -1 -12 -8 -21z m-459 -45 c15 -9 19 -22 19 -69 0 -64 -9 -78 -55 -84 -25
-3 -30 -9 -33 -35 -2 -24 -8 -32 -23 -32 -18 0 -19 8 -19 115 l0 115 46 0 c25
0 54 -5 65 -10z m119 3 c-19 -3 -39 -9 -45 -15 -7 -7 -6 -9 1 -5 14 8 24 -14
24 -49 0 -20 5 -24 28 -24 42 0 37 -28 -5 -36 -29 -6 -34 -10 -29 -28 8 -34
-4 -66 -25 -66 -18 0 -19 9 -19 115 l0 115 53 -2 c40 -1 44 -2 17 -5z m50 -13
c0 -16 -7 -20 -35 -20 -19 0 -35 4 -35 8 0 5 14 7 30 4 23 -3 30 0 30 12 0 9
2 16 5 16 3 0 5 -9 5 -20z m148 8 c7 -7 11 -23 11 -38 -2 -22 -2 -22 -6 -3 -6
29 -29 48 -39 32 -4 -8 -3 -9 4 -5 7 4 12 2 12 -5 0 -6 -8 -9 -19 -6 -29 7
-39 -5 -34 -41 7 -42 35 -40 45 3 6 26 7 25 3 -7 -4 -37 9 -47 27 -23 4 6 8 2
8 -9 0 -12 -5 -16 -15 -12 -12 4 -14 0 -9 -22 4 -15 13 -40 21 -57 13 -27 13
-28 -1 -10 -9 11 -20 26 -26 33 -6 6 -7 12 -3 13 4 0 -5 7 -22 14 -25 12 -21
21 8 16 5 -1 6 3 2 9 -4 7 -12 7 -26 0 -14 -8 -19 -21 -19 -55 0 -25 -5 -45
-11 -45 -5 0 -7 6 -3 13 5 8 2 8 -9 -2 -16 -12 -17 -5 -17 103 l0 116 53 0
c29 0 58 -5 65 -12z m75 4 c-17 -5 -20 -11 -13 -22 9 -13 11 -13 20 0 8 13 13
-54 13 -182 0 -21 41 -25 53 -6 4 7 3 8 -4 4 -7 -4 -12 -1 -12 9 0 9 3 14 8
12 4 -3 6 39 4 94 -3 93 -2 99 16 99 27 0 33 -29 25 -128 -6 -88 -21 -112 -68
-112 -24 0 -65 26 -65 42 0 7 6 3 14 -8 8 -10 18 -16 22 -11 4 4 2 7 -4 7 -7
0 -12 9 -12 21 0 11 -4 18 -9 14 -9 -5 -21 162 -12 171 2 2 14 4 25 3 20 -1
20 -1 -1 -7z m391 -4 c-3 -5 -9 -6 -14 -3 -5 3 -11 -44 -13 -107 l-3 -113 -2
117 c-2 110 -1 117 17 115 11 0 17 -5 15 -9z m114 -35 c11 -27 23 -58 27 -70
12 -42 20 -23 18 45 -1 60 1 68 18 69 18 2 19 -6 19 -113 0 -113 0 -115 -22
-112 -16 2 -28 19 -47 65 -14 35 -30 63 -34 63 -5 0 -6 -21 -2 -46 7 -57 -1
-84 -26 -84 -18 0 -19 8 -19 115 0 114 0 115 24 115 19 0 28 -10 44 -47z m227
38 c-3 -5 -17 -8 -30 -5 -14 2 -25 0 -25 -6 0 -5 3 -9 8 -9 4 1 18 0 32 -1 20
-2 19 -4 -10 -9 l-35 -6 -3 -72 c-2 -62 0 -73 13 -73 9 0 14 -4 11 -9 -8 -12
27 -8 37 4 4 6 7 -1 5 -15 -3 -23 -7 -25 -43 -22 -61 5 -65 13 -65 118 0 78 3
95 18 103 21 13 95 14 87 2z m139 -8 c2 -10 10 -45 16 -78 6 -33 14 -69 16
-80 4 -16 3 -17 -5 -5 -8 12 -12 10 -20 -10 -7 -18 -10 -20 -10 -7 -1 12 -9
17 -30 17 -22 0 -30 -6 -35 -25 -4 -15 -13 -25 -25 -25 -18 0 -18 3 -5 73 8
39 17 91 21 115 5 40 8 42 39 42 23 0 34 -5 38 -17z m256 -3 c0 -13 -7 -20
-20 -20 -18 0 -20 -7 -22 -82 0 -46 -1 -89 -1 -95 1 -7 -10 -13 -23 -13 -24 0
-24 2 -24 95 0 88 -1 95 -20 95 -11 0 -20 5 -20 11 0 5 5 7 10 4 6 -3 16 -3
22 1 9 6 5 10 -12 15 -16 5 -1 7 43 8 61 1 67 -1 67 -19z m144 4 c27 -26 12
-135 -15 -118 -8 5 -8 1 0 -14 13 -24 14 -32 4 -31 -19 3 -22 -3 -13 -26 6
-15 6 -25 0 -25 -5 0 -15 18 -21 40 -7 22 -16 40 -21 40 -4 0 -8 -18 -8 -40 0
-33 -3 -40 -20 -40 -18 0 -20 7 -20 78 -1 42 -3 94 -6 115 l-6 37 55 0 c37 0
61 -5 71 -16z m149 2 c16 -40 19 -107 6 -124 -13 -15 -12 -16 4 -3 14 11 17
11 17 0 0 -8 3 -30 6 -49 5 -31 3 -36 -15 -37 -19 -2 -20 0 -6 13 8 9 15 20
15 27 0 6 -7 2 -15 -9 -13 -17 -14 -17 -15 -1 0 12 -8 17 -30 17 -16 0 -30 5
-30 10 0 6 -4 10 -10 10 -5 0 -7 -8 -4 -17 5 -15 4 -16 -5 -3 -9 12 -11 11
-12 -10 0 -14 -3 -19 -6 -12 -3 7 -2 20 2 30 7 16 9 25 13 80 1 13 6 20 12 17
6 -3 7 1 4 10 -3 8 -3 26 0 40 5 19 13 25 35 25 16 0 31 -6 34 -14z m117 -101
c0 -97 -2 -115 -16 -115 -8 0 -13 4 -10 9 4 5 0 12 -6 14 -8 3 -6 6 5 6 20 1
18 23 -3 33 -12 5 -12 7 3 7 19 1 25 41 6 41 -6 0 -8 -7 -4 -17 4 -12 3 -15
-4 -8 -17 17 -18 108 -1 123 13 12 13 13 -2 8 -10 -3 -18 -1 -18 4 0 6 11 10
25 10 l25 0 0 -115z m80 15 l0 -100 35 0 c24 0 35 -5 35 -15 0 -12 -13 -15
-55 -15 l-55 0 0 115 c0 108 1 115 20 115 19 0 20 -7 20 -100z m185 91 c-11
-5 -24 -6 -30 -4 -5 2 -2 -2 8 -10 18 -15 18 -16 -5 -19 -17 -2 -22 -9 -20
-23 2 -11 4 -26 4 -33 1 -7 8 -10 15 -8 8 3 12 2 9 -3 -3 -5 -15 -11 -25 -14
-26 -7 -52 23 -53 62 -1 45 17 61 71 60 33 0 41 -3 26 -8z m-1408 -153 c-2
-18 -4 -4 -4 32 0 36 2 50 4 33 2 -18 2 -48 0 -65z m-129 46 c3 -34 -16 -49
-48 -39 -43 14 -26 78 18 73 22 -2 28 -9 30 -34z m1517 -24 c3 -6 -1 -7 -9 -4
-18 7 -21 14 -7 14 6 0 13 -4 16 -10z m55 -36 c0 -11 -8 -28 -17 -36 -19 -16
-56 -21 -47 -6 3 4 -3 8 -13 9 -14 0 -14 2 5 9 12 5 22 17 23 27 0 16 1 15 8
-2 5 -11 4 -25 -1 -32 -7 -9 -7 -13 0 -13 18 0 34 40 28 68 -5 20 -4 23 4 12
5 -8 10 -24 10 -36z m-1953 -6 c-3 -8 -6 -5 -6 6 -1 11 2 17 5 13 3 -3 4 -12
1 -19z m1846 -14 c-7 -3 -9 -12 -6 -20 3 -8 0 -14 -6 -14 -6 0 -11 9 -11 20 0
13 6 20 18 19 9 0 12 -3 5 -5z m-1829 -20 c3 -8 2 -12 -4 -9 -6 3 -10 10 -10
16 0 14 7 11 14 -7z m-167 -10 c-3 -3 -12 -4 -19 -1 -8 3 -5 6 6 6 11 1 17 -2
13 -5z"/>
<path d="M3272 9490 c0 -14 2 -19 5 -12 2 6 2 18 0 25 -3 6 -5 1 -5 -13z"/>
<path d="M1906 9194 c-3 -9 -2 -23 3 -32 8 -13 10 -10 9 16 -1 36 -3 39 -12
16z"/>
<path d="M2467 9159 c7 -7 15 -10 18 -7 3 3 -2 9 -12 12 -14 6 -15 5 -6 -5z"/>
<path d="M2590 9091 c0 -6 4 -12 8 -15 5 -3 9 1 9 9 0 8 -4 15 -9 15 -4 0 -8
-4 -8 -9z"/>
<path d="M5364 9077 c0 -13 7 -24 14 -24 15 0 15 7 -2 30 -13 17 -14 16 -12
-6z"/>
<path d="M3538 8923 c6 -2 18 -2 25 0 6 3 1 5 -13 5 -14 0 -19 -2 -12 -5z"/>
<path d="M3738 8883 c7 -3 16 -2 19 1 4 3 -2 6 -13 5 -11 0 -14 -3 -6 -6z"/>
<path d="M3190 8864 c0 -25 9 -30 76 -40 27 -4 52 -11 55 -17 4 -6 25 -5 58 4
38 9 48 16 40 25 -11 13 -50 7 -61 -9 -4 -7 -11 -7 -20 -1 -7 6 -29 11 -48 13
-19 2 -41 8 -49 14 -12 10 -13 9 -6 -3 8 -13 7 -13 -11 0 -10 8 -22 20 -26 25
-4 6 -8 0 -8 -11z"/>
<path d="M3940 8871 c0 -11 52 -19 76 -11 16 6 15 7 -7 13 -34 10 -69 9 -69
-2z"/>
<path d="M3481 8858 c-1 -10 -7 -18 -15 -18 -8 0 -17 -4 -20 -9 -8 -13 22 -7
35 6 6 6 9 17 6 25 -4 9 -6 7 -6 -4z"/>
<path d="M3880 8850 c0 -5 5 -10 10 -10 6 0 10 5 10 10 0 6 -4 10 -10 10 -5 0
-10 -4 -10 -10z"/>
<path d="M4030 8832 c0 -16 25 -32 50 -31 14 0 19 3 12 6 -6 2 -9 10 -5 16 3
7 3 9 -1 5 -5 -4 -19 -3 -32 2 -13 5 -24 6 -24 2z"/>
<path d="M3080 8810 c-8 -5 -10 -10 -5 -10 6 0 17 5 25 10 8 5 11 10 5 10 -5
0 -17 -5 -25 -10z"/>
<path d="M2826 8694 c-3 -8 -12 -14 -21 -14 -8 0 -15 -4 -15 -10 0 -5 5 -10
11 -10 5 0 8 -4 5 -8 -2 -4 7 -9 22 -10 25 -1 26 -1 8 13 -21 16 -14 35 14 35
28 0 32 15 5 16 -13 1 -26 -4 -29 -12z"/>
<path d="M3360 8661 c0 -11 6 -22 13 -25 10 -5 10 -7 0 -12 -9 -4 -13 -28 -13
-69 0 -66 10 -81 48 -68 9 3 0 -7 -20 -22 -40 -30 -51 -65 -20 -65 14 0 15 2
2 10 -13 9 -13 10 0 11 8 1 20 2 27 3 7 0 19 10 27 21 11 15 17 17 26 8 9 -8
7 -14 -8 -22 -11 -6 -24 -20 -27 -31 -4 -11 -11 -17 -17 -14 -7 5 -8 2 -3 -6
6 -10 11 -9 22 6 12 16 15 17 23 4 13 -20 13 -33 0 -25 -5 3 -10 1 -10 -4 0
-14 13 -14 27 0 8 8 13 8 18 0 3 -6 -1 -14 -9 -17 -9 -3 -16 -10 -16 -16 0 -5
11 -1 23 9 25 18 33 45 11 36 -6 -2 -16 2 -20 9 -15 24 -12 36 7 31 10 -3 19
-9 19 -15 0 -5 7 -5 18 0 9 5 23 7 30 5 6 -3 12 0 12 6 0 21 2 26 13 41 10 13
10 13 -5 1 -10 -7 -16 -17 -13 -21 3 -5 1 -11 -5 -15 -5 -3 -10 1 -10 9 0 8
-9 20 -20 26 -24 13 -26 30 -5 30 8 0 15 -6 15 -12 0 -9 4 -8 10 2 5 8 10 30
10 48 0 24 11 44 41 77 23 25 37 45 31 45 -6 0 -12 -5 -14 -11 -2 -6 -21 -13
-41 -14 -36 -3 -37 -2 -37 31 l0 34 -80 0 c-72 0 -80 -2 -80 -19z m180 -85 c0
-14 -4 -28 -10 -31 -6 -4 -10 7 -10 24 0 17 5 31 10 31 6 0 10 -11 10 -24z"/>
<path d="M2750 8660 c0 -5 5 -10 10 -10 6 0 10 5 10 10 0 6 -4 10 -10 10 -5 0
-10 -4 -10 -10z"/>
<path d="M3980 8649 c0 -5 5 -7 10 -4 6 3 10 8 10 11 0 2 -4 4 -10 4 -5 0 -10
-5 -10 -11z"/>
<path d="M3645 8630 c3 -5 10 -10 16 -10 5 0 9 5 9 10 0 6 -7 10 -16 10 -8 0
-12 -4 -9 -10z"/>
<path d="M4410 8633 c5 -2 10 -9 10 -14 0 -6 -4 -7 -10 -4 -13 8 -13 -15 0
-35 8 -12 10 -12 15 2 9 23 2 51 -13 54 -7 1 -8 0 -2 -3z"/>
<path d="M2660 8620 c0 -5 7 -10 15 -10 8 0 15 5 15 10 0 6 -7 10 -15 10 -8 0
-15 -4 -15 -10z"/>
<path d="M2625 8610 c-3 -5 -3 -10 2 -10 4 0 0 -5 -10 -11 -9 -6 -14 -15 -11
-21 4 -6 2 -8 -4 -4 -6 3 -14 1 -18 -5 -4 -8 -9 -7 -16 2 -7 11 -8 9 -6 -6 3
-16 10 -19 33 -16 41 4 48 10 33 29 -7 9 -8 13 -2 10 6 -4 10 3 10 18 0 26 -2
29 -11 14z"/>
<path d="M2700 8565 c0 -8 5 -15 10 -15 6 0 10 7 10 15 0 8 -4 15 -10 15 -5 0
-10 -7 -10 -15z"/>
<path d="M2660 8510 c-13 -8 -12 -10 3 -10 15 0 17 -11 17 -90 l0 -90 60 0
c58 0 60 -1 60 -26 0 -33 21 -54 54 -54 14 0 26 -4 26 -10 0 -5 14 -10 30 -10
17 0 30 -4 30 -10 0 -5 9 -10 20 -10 11 0 20 -4 20 -10 0 -5 14 -10 30 -10
l30 0 0 90 0 90 -28 0 c-16 0 -34 -8 -42 -20 -8 -11 -22 -20 -32 -20 -10 0
-18 -4 -18 -10 0 -5 -9 -10 -20 -10 -18 0 -20 7 -20 70 0 69 1 70 26 70 23 0
54 20 54 34 0 3 -18 6 -40 6 -33 0 -40 3 -40 20 0 18 -7 20 -74 20 -41 0 -78
-4 -81 -10 -8 -13 -42 -13 -47 0 -2 6 -8 6 -18 0z"/>
<path d="M4008 8493 c6 -2 18 -2 25 0 6 3 1 5 -13 5 -14 0 -19 -2 -12 -5z"/>
<path d="M4230 8470 c-13 -9 -13 -10 0 -10 13 0 13 -1 0 -10 -10 -6 -11 -10
-2 -10 21 0 13 -18 -10 -23 -17 -3 -14 -5 10 -6 34 -1 40 7 20 27 -17 17 3 14
26 -3 11 -8 25 -15 30 -15 6 0 -6 10 -27 23 -21 13 -35 26 -31 30 10 10 2 8
-16 -3z"/>
<path d="M4030 8445 c-17 -20 -6 -31 21 -19 18 8 19 11 6 22 -11 10 -17 9 -27
-3z"/>
<path d="M4297 8449 c7 -7 15 -10 18 -7 3 3 -2 9 -12 12 -14 6 -15 5 -6 -5z"/>
<path d="M4445 8451 c-3 -5 -2 -12 3 -15 5 -3 9 1 9 9 0 17 -3 19 -12 6z"/>
<path d="M3465 8390 c3 -5 8 -10 11 -10 2 0 4 5 4 10 0 6 -5 10 -11 10 -5 0
-7 -4 -4 -10z"/>
<path d="M2367 8373 c-4 -3 -7 -11 -7 -17 0 -6 5 -5 12 2 6 6 9 14 7 17 -3 3
-9 2 -12 -2z"/>
<path d="M4090 8358 c0 -12 10 -32 22 -45 17 -18 18 -23 6 -23 -9 0 -18 7 -22
15 -3 8 -16 15 -30 15 -24 0 -24 -1 -10 -30 15 -29 34 -40 34 -19 0 5 -4 7
-10 4 -6 -3 -7 1 -4 10 6 14 8 14 25 -1 23 -21 30 -15 35 28 3 26 1 30 -7 18
-8 -12 -9 -9 -5 13 8 33 -1 36 -15 5 -9 -22 -9 -21 -6 5 3 15 0 27 -4 27 -5 0
-9 -10 -9 -22z"/>
<path d="M3340 8330 c0 -5 5 -10 11 -10 5 0 7 5 4 10 -3 6 -8 10 -11 10 -2 0
-4 -4 -4 -10z"/>
<path d="M3375 8309 c-4 -6 -5 -12 -2 -15 2 -3 7 2 10 11 7 17 1 20 -8 4z"/>
<path d="M3311 8264 c-7 -8 -10 -18 -7 -22 8 -8 38 10 44 26 5 17 -21 14 -37
-4z"/>
<path d="M3369 8263 c-13 -16 -12 -17 4 -4 16 13 21 21 13 21 -2 0 -10 -8 -17
-17z"/>
<path d="M2355 8239 c-4 -6 -4 -13 -1 -16 10 -10 -25 -43 -46 -43 -10 0 -18
-4 -18 -10 0 -5 14 -10 31 -10 37 0 58 23 59 63 0 27 -13 36 -25 16z"/>
<path d="M4038 8244 c-7 -7 22 -44 35 -44 5 0 7 6 4 14 -3 7 0 20 6 27 10 11
9 11 -4 1 -10 -8 -19 -8 -25 -2 -6 6 -13 8 -16 4z"/>
<path d="M3260 8216 c0 -4 7 -14 15 -22 8 -9 15 -11 15 -6 0 5 -7 15 -15 22
-8 7 -15 9 -15 6z"/>
<path d="M2643 8075 c-13 -13 -23 -35 -23 -49 0 -21 5 -24 43 -27 79 -7 97 -1
97 32 0 22 -5 29 -20 29 -13 0 -20 7 -20 20 0 29 -49 26 -77 -5z m77 -48 c0
-19 -10 -27 -26 -20 -10 4 -11 8 -1 19 15 17 27 18 27 1z"/>
<path d="M3214 8079 c-15 -17 -15 -19 -2 -14 11 4 18 0 21 -12 2 -10 3 -5 1
11 -4 25 -2 27 11 16 9 -7 14 -18 11 -25 -2 -6 2 -12 10 -12 8 0 14 9 14 19 0
11 -4 16 -10 13 -5 -3 -10 -2 -10 3 0 20 -29 20 -46 1z"/>
<path d="M3255 8019 c-4 -6 -5 -12 -2 -15 2 -3 7 2 10 11 7 17 1 20 -8 4z"/>
<path d="M3216 7978 c3 -5 10 -6 15 -3 13 9 11 12 -6 12 -8 0 -12 -4 -9 -9z"/>
<path d="M2060 7841 c0 -19 4 -30 10 -26 10 6 8 40 -3 51 -4 4 -7 -7 -7 -25z"/>
<path d="M2540 7842 c0 -5 9 -17 19 -26 19 -17 19 -17 14 6 -3 16 -2 19 5 9 6
-8 12 -9 16 -3 3 5 -1 13 -10 16 -22 9 -44 7 -44 -2z"/>
<path d="M2625 7840 c-11 -17 10 -27 45 -22 34 5 51 22 23 22 -10 0 -28 3 -39
6 -12 3 -25 0 -29 -6z"/>
<path d="M2320 7829 c0 -5 5 -7 10 -4 6 3 10 8 10 11 0 2 -4 4 -10 4 -5 0 -10
-5 -10 -11z"/>
<path d="M2365 7830 c3 -5 8 -10 11 -10 2 0 4 5 4 10 0 6 -5 10 -11 10 -5 0
-7 -4 -4 -10z"/>
<path d="M2417 7821 c24 -23 39 -26 48 -11 3 6 -1 7 -10 4 -10 -4 -15 -2 -13
7 2 8 -7 15 -22 17 l-25 4 22 -21z"/>
<path d="M2238 7733 c-3 -53 -5 -58 -28 -61 l-24 -4 24 -14 25 -13 -35 -1 -35
-1 25 -14 25 -14 -30 -1 c-20 0 -26 -3 -17 -9 8 -4 13 -11 12 -15 0 -4 6 -14
14 -22 14 -13 17 -13 33 6 10 11 21 20 26 20 5 0 4 -7 -3 -15 -7 -8 -8 -15 -2
-15 17 0 33 27 26 44 -3 9 -2 22 3 29 15 19 23 47 14 47 -4 0 -13 -10 -20 -22
-6 -13 -9 -15 -7 -5 3 9 2 17 -2 17 -4 0 -7 27 -5 60 1 33 -2 60 -7 60 -5 0
-10 -26 -12 -57z m25 -127 c4 -10 1 -13 -8 -9 -8 3 -12 9 -9 14 7 12 11 11 17
-5z m-53 -16 c0 -5 -4 -10 -10 -10 -5 0 -10 5 -10 10 0 6 5 10 10 10 6 0 10
-4 10 -10z"/>
<path d="M2145 7770 c-3 -5 -1 -10 4 -10 6 0 11 5 11 10 0 6 -2 10 -4 10 -3 0
-8 -4 -11 -10z"/>
<path d="M2400 7765 c0 -8 5 -15 10 -15 6 0 10 7 10 15 0 8 -4 15 -10 15 -5 0
-10 -7 -10 -15z"/>
<path d="M2355 7760 c-4 -6 -13 -9 -19 -7 -7 3 -13 0 -13 -6 0 -7 12 -13 25
-14 16 -1 20 2 12 7 -10 6 -9 9 1 12 8 3 11 8 8 12 -4 4 -10 2 -14 -4z"/>
<path d="M2380 7750 c0 -5 5 -10 11 -10 5 0 8 -4 4 -9 -10 -17 12 -21 25 -6 7
8 20 15 29 15 14 0 14 2 1 10 -9 6 -17 5 -22 -3 -6 -9 -12 -9 -28 1 -12 7 -20
8 -20 2z"/>
<path d="M2680 7730 c0 -5 5 -10 10 -10 6 0 10 5 10 10 0 6 -4 10 -10 10 -5 0
-10 -4 -10 -10z"/>
<path d="M2326 7713 c5 -5 12 -12 16 -18 4 -6 8 -2 8 8 0 9 -7 17 -17 17 -9 0
-12 -3 -7 -7z"/>
<path d="M1964 7699 c-3 -6 -1 -16 5 -22 6 -6 12 -20 12 -31 1 -14 4 -11 8 9
11 45 -6 74 -25 44z m21 -9 c3 -5 1 -10 -4 -10 -6 0 -11 5 -11 10 0 6 2 10 4
10 3 0 8 -4 11 -10z"/>
<path d="M2023 7664 c-3 -8 -1 -25 5 -37 10 -20 11 -18 11 16 1 39 -5 48 -16
21z"/>
<path d="M2060 7666 c0 -8 5 -18 10 -21 6 -3 10 3 10 14 0 12 -4 21 -10 21 -5
0 -10 -6 -10 -14z"/>
<path d="M2313 7667 c-3 -6 -1 -7 5 -3 5 3 12 1 14 -6 3 -8 6 -7 10 3 7 17
-19 22 -29 6z"/>
<path d="M2673 7633 c-21 -7 -15 -25 6 -18 12 3 21 0 25 -10 3 -8 1 -15 -4
-15 -6 0 -10 5 -10 11 0 5 -5 7 -11 3 -8 -4 -5 -10 7 -17 11 -6 25 -18 32 -28
7 -10 19 -16 27 -13 9 4 15 0 15 -7 0 -11 3 -11 10 1 8 12 10 12 10 1 0 -8 3
-11 6 -8 4 4 1 14 -6 23 -12 13 -11 17 1 25 8 5 9 9 4 9 -6 0 -18 -9 -28 -20
-10 -12 -22 -18 -27 -15 -6 4 -1 15 12 25 20 17 21 19 5 20 -10 0 -15 -4 -12
-10 3 -5 -1 -10 -9 -10 -9 0 -15 3 -15 8 6 34 -11 54 -38 45z"/>
<path d="M2811 7576 c-8 -10 -9 -20 -3 -32 8 -14 10 -14 15 -1 4 10 16 14 39
12 18 -2 27 -1 20 2 -6 2 -9 9 -6 15 5 7 1 7 -12 0 -14 -8 -21 -6 -29 5 -10
13 -13 13 -24 -1z m11 -18 c-7 -7 -12 -8 -12 -2 0 14 12 26 19 19 2 -3 -1 -11
-7 -17z"/>
<path d="M2056 7544 c-3 -8 1 -23 10 -31 13 -14 17 -14 25 -2 5 8 4 15 -1 17
-6 2 -10 10 -10 18 0 19 -16 18 -24 -2z"/>
<path d="M2136 7417 c3 -10 9 -15 12 -12 3 3 0 11 -7 18 -10 9 -11 8 -5 -6z"/>
<path d="M2031 7404 c0 -11 3 -14 6 -6 3 7 2 16 -1 19 -3 4 -6 -2 -5 -13z"/>
<path d="M2105 7330 c3 -5 8 -10 11 -10 2 0 4 5 4 10 0 6 -5 10 -11 10 -5 0
-7 -4 -4 -10z"/>
<path d="M2085 7300 c-3 -5 -1 -10 5 -10 6 0 8 -5 4 -12 -4 -7 -3 -8 4 -4 6 4
9 13 5 21 -6 18 -10 19 -18 5z"/>
<path d="M2014 7031 c7 -11 -22 -37 -54 -50 -20 -8 -21 -10 -6 -10 18 -1 18
-2 1 -21 -10 -11 -15 -20 -12 -20 8 0 67 60 59 60 -4 1 3 9 15 19 19 16 20 20
7 25 -8 3 -13 2 -10 -3z"/>
<path d="M1950 8670 c0 -5 5 -10 11 -10 5 0 7 5 4 10 -3 6 -8 10 -11 10 -2 0
-4 -4 -4 -10z"/>
<path d="M4500 8669 c0 -5 5 -7 10 -4 6 3 10 8 10 11 0 2 -4 4 -10 4 -5 0 -10
-5 -10 -11z"/>
<path d="M3630 8550 c0 -5 5 -10 11 -10 5 0 7 5 4 10 -3 6 -8 10 -11 10 -2 0
-4 -4 -4 -10z"/>
<path d="M4894 8207 c-9 -10 -4 -13 22 -13 21 0 34 5 34 13 0 17 -41 16 -56 0z"/>
<path d="M4946 8158 c3 -13 10 -30 15 -38 6 -13 9 -12 15 4 5 12 3 21 -4 24
-7 2 -12 10 -12 18 0 8 -5 14 -11 14 -6 0 -8 -9 -3 -22z"/>
<path d="M4788 7843 c7 -3 16 -2 19 1 4 3 -2 6 -13 5 -11 0 -14 -3 -6 -6z"/>
<path d="M4723 7824 c0 -19 27 -26 43 -13 12 9 13 9 9 -3 -4 -9 1 -19 12 -23
32 -14 42 -14 36 2 -5 13 -2 13 15 4 35 -19 62 -14 62 12 -1 20 -2 20 -11 5
-5 -10 -15 -18 -21 -18 -7 0 -6 5 2 15 11 13 8 14 -21 9 -19 -3 -40 -8 -47
-10 -7 -2 -10 1 -7 6 3 6 16 10 27 10 35 0 11 13 -26 14 -19 1 -34 -3 -33 -8
1 -5 -4 -11 -11 -13 -7 -3 -10 1 -7 9 3 8 0 15 -8 15 -7 0 -14 -6 -14 -13z"/>
<path d="M4976 7824 c-4 -11 0 -15 16 -12 12 2 23 9 26 16 6 18 -35 15 -42 -4z"/>
<path d="M4910 7821 c0 -5 7 -11 15 -15 8 -3 15 -1 15 3 0 5 -7 11 -15 15 -8
3 -15 1 -15 -3z"/>
<path d="M4935 7750 c-3 -5 -2 -10 4 -10 5 0 13 5 16 10 3 6 2 10 -4 10 -5 0
-13 -4 -16 -10z"/>
<path d="M5022 7740 c-10 -16 -10 -20 2 -20 17 0 38 24 29 33 -10 11 -17 8
-31 -13z"/>
<path d="M4383 8173 c4 -6 2 -13 -5 -15 -8 -3 -6 -6 4 -10 17 -7 19 15 3 29
-4 4 -5 3 -2 -4z"/>
<path d="M1368 7008 c5 -5 16 -8 23 -6 8 3 3 7 -10 11 -17 4 -21 3 -13 -5z"/>
<path d="M5713 6110 c0 -41 2 -58 4 -37 2 20 2 54 0 75 -2 20 -4 3 -4 -38z"/>
<path d="M1603 6143 c9 -2 23 -2 30 0 6 3 -1 5 -18 5 -16 0 -22 -2 -12 -5z"/>
<path d="M4238 6063 c7 -3 16 -2 19 1 4 3 -2 6 -13 5 -11 0 -14 -3 -6 -6z"/>
<path d="M3218 6123 c12 -2 32 -2 45 0 12 2 2 4 -23 4 -25 0 -35 -2 -22 -4z"/>
<path d="M3298 6123 c6 -2 18 -2 25 0 6 3 1 5 -13 5 -14 0 -19 -2 -12 -5z"/>
<path d="M2425 6100 c-4 -6 -11 -7 -17 -4 -7 4 -8 2 -4 -5 6 -9 11 -9 22 0 14
11 18 19 10 19 -3 0 -8 -5 -11 -10z"/>
<path d="M3330 6096 c6 -6 11 -80 12 -170 l2 -161 6 155 c3 85 9 162 13 171 6
11 2 15 -18 15 -17 0 -22 -3 -15 -10z"/>
<path d="M3265 6090 c-13 -6 -15 -9 -5 -9 8 0 22 4 30 9 18 12 2 12 -25 0z"/>
<path d="M2191 6063 c-1 -12 4 -25 9 -28 12 -7 12 2 0 30 -8 19 -9 19 -9 -2z"/>
<path d="M3292 6060 c0 -14 2 -19 5 -12 2 6 2 18 0 25 -3 6 -5 1 -5 -13z"/>
<path d="M2500 6051 c0 -6 4 -13 10 -16 6 -3 7 1 4 9 -7 18 -14 21 -14 7z"/>
<path d="M3313 6015 c0 -22 2 -30 4 -17 2 12 2 30 0 40 -3 9 -5 -1 -4 -23z"/>
<path d="M2540 5976 c0 -2 8 -10 18 -17 15 -13 16 -12 3 4 -13 16 -21 21 -21
13z"/>
<path d="M3312 5950 c0 -14 2 -19 5 -12 2 6 2 18 0 25 -3 6 -5 1 -5 -13z"/>
<path d="M3000 5946 c0 -3 9 -10 20 -16 11 -6 20 -8 20 -6 0 3 -9 10 -20 16
-11 6 -20 8 -20 6z"/>
<path d="M2566 5905 c-3 -8 -1 -15 4 -15 6 0 10 7 10 15 0 8 -2 15 -4 15 -2 0
-6 -7 -10 -15z"/>
<path d="M3312 5900 c0 -14 2 -19 5 -12 2 6 2 18 0 25 -3 6 -5 1 -5 -13z"/>
<path d="M2463 5893 c-18 -7 -16 -33 2 -33 8 0 15 9 15 20 0 11 -1 20 -2 19
-2 0 -9 -3 -15 -6z"/>
<path d="M3281 5874 c0 -11 3 -14 6 -6 3 7 2 16 -1 19 -3 4 -6 -2 -5 -13z"/>
<path d="M2566 5855 c4 -8 11 -15 16 -15 6 0 5 6 -2 15 -7 8 -14 15 -16 15 -2
0 -1 -7 2 -15z"/>
<path d="M3255 5830 c-3 -5 1 -10 9 -10 9 0 16 5 16 10 0 6 -4 10 -9 10 -6 0
-13 -4 -16 -10z"/>
<path d="M2971 5821 c-8 -5 -9 -11 -3 -15 5 -3 12 1 16 9 6 17 6 18 -13 6z"/>
<path d="M2623 5799 c-2 -17 1 -18 12 -9 8 7 12 16 9 21 -9 16 -20 10 -21 -12z"/>
<path d="M2660 5765 c0 -8 4 -15 10 -15 5 0 7 7 4 15 -4 8 -8 15 -10 15 -2 0
-4 -7 -4 -15z"/>
<path d="M2653 5734 c3 -4 2 -14 -3 -24 -8 -14 -5 -17 18 -16 15 1 36 -5 46
-14 18 -14 18 -14 5 7 -10 16 -20 21 -39 17 -25 -4 -25 -4 -2 6 27 11 21 30
-10 30 -12 0 -18 -3 -15 -6z"/>
<path d="M2817 5657 c-3 -8 0 -14 7 -14 7 0 13 6 13 14 0 7 -4 13 -8 13 -4 0
-9 -6 -12 -13z"/>
<path d="M3342 5640 c0 -14 2 -19 5 -12 2 6 2 18 0 25 -3 6 -5 1 -5 -13z"/>
<path d="M2846 5635 c-3 -8 -12 -12 -20 -9 -18 7 -31 -12 -15 -22 8 -4 9 -3 5
5 -5 8 0 10 16 7 18 -3 24 1 25 15 2 23 -3 25 -11 4z"/>
<path d="M2727 5627 c-3 -8 1 -14 8 -14 7 0 11 6 8 14 -3 7 -6 13 -8 13 -2 0
-5 -6 -8 -13z"/>
<path d="M2286 5597 c3 -10 9 -15 12 -12 3 3 0 11 -7 18 -10 9 -11 8 -5 -6z"/>
<path d="M2515 5590 c4 -22 35 -71 35 -55 0 6 -7 19 -15 29 -8 10 -12 22 -10
27 3 4 1 10 -4 14 -6 3 -8 -3 -6 -15z"/>
<path d="M2232 5570 c0 -19 2 -27 5 -17 2 9 2 25 0 35 -3 9 -5 1 -5 -18z"/>
<path d="M3159 5593 c-1 -5 -1 -11 0 -15 1 -8 -15 -12 -32 -9 -5 1 -6 -3 -2
-9 9 -15 26 -12 41 8 16 21 17 32 4 32 -5 0 -11 -3 -11 -7z"/>
<path d="M3021 5564 c0 -11 3 -14 6 -6 3 7 2 16 -1 19 -3 4 -6 -2 -5 -13z"/>
<path d="M3341 5554 c0 -11 3 -14 6 -6 3 7 2 16 -1 19 -3 4 -6 -2 -5 -13z"/>
<path d="M2257 5528 c-3 -8 5 -14 19 -14 20 -2 21 0 9 12 -17 17 -22 17 -28 2z"/>
<path d="M2743 5523 c9 -2 23 -2 30 0 6 3 -1 5 -18 5 -16 0 -22 -2 -12 -5z"/>
<path d="M2985 5499 c-4 -6 -5 -12 -2 -15 2 -3 7 2 10 11 7 17 1 20 -8 4z"/>
<path d="M4878 6123 c7 -3 16 -2 19 1 4 3 -2 6 -13 5 -11 0 -14 -3 -6 -6z"/>
<path d="M4991 6114 c0 -11 3 -14 6 -6 3 7 2 16 -1 19 -3 4 -6 -2 -5 -13z"/>
<path d="M5011 6074 c0 -11 3 -14 6 -6 3 7 2 16 -1 19 -3 4 -6 -2 -5 -13z"/>
<path d="M4980 6050 c-13 -8 -12 -10 3 -10 9 0 17 5 17 10 0 12 -1 12 -20 0z"/>
<path d="M4773 5915 c0 -27 2 -38 4 -22 2 15 2 37 0 50 -2 12 -4 0 -4 -28z"/>
<path d="M4771 5794 c0 -11 3 -14 6 -6 3 7 2 16 -1 19 -3 4 -6 -2 -5 -13z"/>
<path d="M4985 5698 c2 -18 4 -36 4 -40 1 -5 6 -8 12 -8 8 0 9 11 5 32 -9 45
-25 57 -21 16z"/>
<path d="M4860 5584 c0 -8 5 -12 10 -9 6 3 10 10 10 16 0 5 -4 9 -10 9 -5 0
-10 -7 -10 -16z"/>
<path d="M4960 5571 c0 -5 9 -11 20 -14 24 -6 27 8 4 17 -21 8 -24 8 -24 -3z"/>
<path d="M1671 5943 c10 -11 10 -14 2 -9 -8 4 -13 2 -13 -8 0 -8 5 -18 10 -21
6 -4 7 -11 4 -17 -4 -6 -1 -9 6 -6 15 5 27 30 13 27 -19 -3 -27 2 -14 10 16
10 8 41 -10 41 -8 0 -7 -5 2 -17z"/>
<path d="M1528 5893 c7 -3 16 -2 19 1 4 3 -2 6 -13 5 -11 0 -14 -3 -6 -6z"/>
<path d="M1746 5887 c3 -10 9 -15 12 -12 3 3 0 11 -7 18 -10 9 -11 8 -5 -6z"/>
<path d="M1461 5658 c-25 -104 -37 -136 -43 -122 -6 14 -7 12 -3 -9 3 -15 -2
-55 -10 -88 -9 -34 -13 -64 -10 -68 4 -3 55 -6 113 -6 l107 0 -42 165 c-27
104 -41 178 -38 200 3 24 2 29 -4 15 -7 -17 -9 -14 -15 18 -4 20 -10 37 -14
37 -4 0 -22 -64 -41 -142z"/>
<path d="M1247 5776 c-3 -8 1 -20 9 -26 10 -9 14 -9 14 -1 0 6 -4 11 -10 11
-5 0 -7 7 -4 15 4 8 4 15 1 15 -3 0 -7 -6 -10 -14z"/>
<path d="M1201 5714 c0 -11 3 -14 6 -6 3 7 2 16 -1 19 -3 4 -6 -2 -5 -13z"/>
<path d="M1551 5664 c0 -11 3 -14 6 -6 3 7 2 16 -1 19 -3 4 -6 -2 -5 -13z"/>
<path d="M1720 5590 c0 -19 3 -21 12 -12 9 9 9 15 0 24 -9 9 -12 7 -12 -12z"/>
<path d="M1361 5581 c-8 -14 -7 -22 4 -31 13 -11 15 -8 15 19 0 36 -5 39 -19
12z"/>
<path d="M1572 5580 c0 -14 2 -19 5 -12 2 6 2 18 0 25 -3 6 -5 1 -5 -13z"/>
<path d="M1392 5570 c0 -14 2 -19 5 -12 2 6 2 18 0 25 -3 6 -5 1 -5 -13z"/>
<path d="M1675 5569 c-4 -6 -5 -12 -2 -15 2 -3 7 2 10 11 7 17 1 20 -8 4z"/>
<path d="M1610 5528 c0 -4 14 -8 30 -8 17 0 30 4 30 9 0 5 -13 9 -30 9 -16 -1
-30 -5 -30 -10z"/>
<path d="M4138 5893 c6 -2 18 -2 25 0 6 3 1 5 -13 5 -14 0 -19 -2 -12 -5z"/>
<path d="M4240 5770 c0 -5 9 -10 21 -10 11 0 17 5 14 10 -3 6 -13 10 -21 10
-8 0 -14 -4 -14 -10z"/>
<path d="M3915 5640 c-3 -5 -1 -10 4 -10 6 0 11 5 11 10 0 6 -2 10 -4 10 -3 0
-8 -4 -11 -10z"/>
<path d="M4107 5643 c-3 -5 -2 -15 2 -22 7 -10 10 -10 16 -1 4 6 3 16 -3 22
-5 5 -12 6 -15 1z"/>
<path d="M3957 5605 c-4 -8 -2 -17 2 -20 5 -2 11 4 14 15 6 23 -8 27 -16 5z"/>
<path d="M4240 5592 c0 -15 -2 -15 -10 -2 -8 13 -10 12 -10 -2 0 -21 10 -23
34 -5 17 12 17 14 2 20 -11 4 -16 1 -16 -11z"/>
<path d="M4308 5593 c7 -3 16 -2 19 1 4 3 -2 6 -13 5 -11 0 -14 -3 -6 -6z"/>
<path d="M5912 5903 c-5 -10 -7 -24 -5 -31 3 -7 -1 -10 -9 -7 -9 4 -15 0 -15
-8 0 -9 7 -12 19 -9 10 2 18 9 18 16 0 7 4 6 9 -2 7 -11 9 -10 14 3 4 9 3 14
-1 11 -4 -2 -14 -1 -22 5 -8 5 -10 9 -4 9 6 0 11 7 11 15 0 20 -4 19 -15 -2z"/>
<path d="M5966 5870 c3 -25 8 -47 10 -49 8 -8 3 54 -6 74 -7 14 -8 6 -4 -25z"/>
<path d="M5461 5884 c0 -11 3 -14 6 -6 3 7 2 16 -1 19 -3 4 -6 -2 -5 -13z"/>
<path d="M5832 5824 c-11 -12 -9 -14 8 -14 11 0 20 4 20 9 0 17 -15 19 -28 5z"/>
<path d="M5743 5772 c-1 -16 2 -20 7 -12 6 10 10 9 16 -3 8 -12 11 -13 21 -1
8 8 9 15 3 19 -6 3 -10 1 -10 -5 0 -6 -5 -8 -10 -5 -6 4 -8 10 -5 15 3 4 -1
10 -8 13 -7 3 -13 -5 -14 -21z"/>
<path d="M5912 5784 c-7 -8 -17 -12 -21 -10 -4 3 -8 -1 -8 -9 0 -8 6 -15 14
-15 7 0 16 0 21 0 4 0 7 3 7 8 0 4 4 12 8 19 11 17 -6 23 -21 7z"/>
<path d="M5986 5792 c-4 -7 0 -19 8 -28 17 -17 19 -11 7 20 -5 14 -10 16 -15
8z"/>
<path d="M5752 5720 c0 -14 2 -19 5 -12 2 6 2 18 0 25 -3 6 -5 1 -5 -13z"/>
<path d="M6007 5685 c3 -8 9 -12 14 -9 12 7 11 11 -5 17 -10 4 -13 1 -9 -8z"/>
<path d="M5960 5670 c0 -5 5 -10 10 -10 6 0 10 5 10 10 0 6 -4 10 -10 10 -5 0
-10 -4 -10 -10z"/>
<path d="M5771 5634 c0 -11 3 -14 6 -6 3 7 2 16 -1 19 -3 4 -6 -2 -5 -13z"/>
<path d="M5590 5595 c-7 -9 -8 -15 -2 -15 5 0 12 7 16 15 3 8 4 15 2 15 -2 0
-9 -7 -16 -15z"/>
<path d="M5821 5597 c-8 -10 -7 -18 3 -32 11 -15 13 -16 13 -1 0 9 -5 16 -10
16 -5 0 -4 7 3 15 7 8 10 15 7 15 -2 0 -10 -6 -16 -13z"/>
<path d="M5375 5579 c-6 -19 3 -49 16 -49 5 0 9 13 9 29 0 16 6 31 13 34 6 3
2 4 -11 4 -12 -1 -24 -9 -27 -18z"/>
<path d="M5614 5589 c-5 -8 -3 -9 6 -4 10 6 12 4 7 -8 -3 -10 -2 -17 3 -17 13
0 13 27 1 35 -5 3 -13 0 -17 -6z"/>
<path d="M5560 5554 c0 -13 18 -19 49 -15 7 2 10 -2 6 -8 -3 -6 -1 -11 4 -11
6 0 11 7 11 15 0 8 -7 15 -16 15 -8 0 -13 3 -11 8 3 4 -6 8 -19 8 -15 1 -24
-4 -24 -12z"/>
<path d="M5698 5963 c12 -2 32 -2 45 0 12 2 2 4 -23 4 -25 0 -35 -2 -22 -4z"/>
<path d="M1640 4574 c0 -11 8 -14 27 -12 39 4 42 28 4 28 -21 0 -31 -5 -31
-16z"/>
<path d="M2515 3082 c12 -9 18 -28 20 -70 2 -53 21 -59 20 -7 0 29 -6 50 -15
55 -13 9 -13 10 0 10 13 0 13 1 0 10 -18 12 -40 14 -25 2z"/>
<path d="M2480 3022 c0 -43 6 -53 26 -45 9 3 14 20 14 44 0 32 -3 39 -20 39
-17 0 -20 -7 -20 -38z"/>
<path d="M2761 2914 c0 -11 3 -14 6 -6 3 7 2 16 -1 19 -3 4 -6 -2 -5 -13z"/>
<path d="M2930 2959 c0 -11 4 -18 10 -14 5 3 7 12 3 20 -7 21 -13 19 -13 -6z"/>
<path d="M3509 3088 c-5 -18 -6 -38 -1 -34 7 8 12 36 6 36 -2 0 -4 -1 -5 -2z"/>
<path d="M3775 3044 c-4 -16 -11 -41 -15 -56 -8 -25 -7 -28 15 -28 23 0 24 2
18 53 -7 63 -10 68 -18 31z"/>
<path d="M3730 2975 c0 -8 2 -15 4 -15 2 0 6 7 10 15 3 8 1 15 -4 15 -6 0 -10
-7 -10 -15z"/>
<path d="M3814 2973 c4 -7 3 -13 -3 -13 -5 0 -8 -8 -7 -17 2 -10 7 -18 12 -17
14 1 17 35 3 48 -9 8 -10 8 -5 -1z"/>
<path d="M4140 3025 c0 -28 4 -35 20 -35 16 0 20 7 20 35 0 28 -4 35 -20 35
-16 0 -20 -7 -20 -35z"/>
<path d="M4317 3016 c-3 -21 -14 -44 -23 -50 -13 -10 -10 -12 20 -8 33 4 35 6
29 31 -14 61 -20 66 -26 27z"/>
</g>
</svg>
